<?xml version="1.0" encoding="UTF-8" standalone="no"?>
<!DOCTYPE svg PUBLIC "-//W3C//DTD SVG 1.1//EN"
 "http://www.w3.org/Graphics/SVG/1.1/DTD/svg11.dtd">
<!-- Generated by graphviz version 2.40.1 (20161225.0304)
 -->
<!-- Title: G Pages: 1 -->
<svg width="1782pt" height="940pt"
 viewBox="0.00 0.00 1782.00 940.00" xmlns="http://www.w3.org/2000/svg" xmlns:xlink="http://www.w3.org/1999/xlink">
<g id="graph0" class="graph" transform="scale(1 1) rotate(0) translate(4 936)">
<title>G</title>
<polygon fill="#ffffff" stroke="transparent" points="-4,4 -4,-936 1778,-936 1778,4 -4,4"/>
<g id="clust1" class="cluster">
<title>cluster_G</title>
<path fill="#808080" fill-opacity="0.094118" stroke="#000000" d="M20,-8C20,-8 1754,-8 1754,-8 1760,-8 1766,-14 1766,-20 1766,-20 1766,-912 1766,-912 1766,-918 1760,-924 1754,-924 1754,-924 20,-924 20,-924 14,-924 8,-918 8,-912 8,-912 8,-20 8,-20 8,-14 14,-8 20,-8"/>
</g>
<!-- app -->
<g id="node1" class="node">
<title>app</title>
<ellipse fill="#ffffff" fill-opacity="0.698039" stroke="#000000" cx="961" cy="-898" rx="27" ry="18"/>
<text text-anchor="middle" x="961" y="-894.3" font-family="Times,serif" font-size="14.00" fill="#000000">app</text>
</g>
<!-- gameservices -->
<g id="node4" class="node">
<title>gameservices</title>
<ellipse fill="#ffffff" fill-opacity="0.698039" stroke="#000000" cx="823" cy="-754" rx="59.5901" ry="18"/>
<text text-anchor="middle" x="823" y="-750.3" font-family="Times,serif" font-size="14.00" fill="#000000">gameservices</text>
</g>
<!-- app&#45;&gt;gameservices -->
<g id="edge51" class="edge">
<title>app&#45;&gt;gameservices</title>
<path fill="none" stroke="#000000" d="M946.2316,-882.5895C922.4876,-857.8131 875.5982,-808.8851 846.9998,-779.0433"/>
<polygon fill="#000000" stroke="#000000" points="849.2468,-776.3295 839.8008,-771.5312 844.1929,-781.1728 849.2468,-776.3295"/>
</g>
<!-- app__AiRequest -->
<g id="node7" class="node">
<title>app__AiRequest</title>
<ellipse fill="#ffffff" fill-opacity="0.698039" stroke="#000000" cx="522" cy="-754" rx="49.2915" ry="18"/>
<text text-anchor="middle" x="522" y="-750.3" font-family="Times,serif" font-size="14.00" fill="#000000">AiRequest</text>
</g>
<!-- app&#45;&gt;app__AiRequest -->
<g id="edge24" class="edge">
<title>app&#45;&gt;app__AiRequest</title>
<path fill="none" stroke="#838b8b" stroke-dasharray="5,2" d="M936.7721,-890.0528C866.4464,-866.9847 661.4042,-799.7271 568.5972,-769.2847"/>
<polygon fill="#838b8b" stroke="#838b8b" points="569.5041,-765.8988 558.9113,-766.1076 567.3223,-772.5501 569.5041,-765.8988"/>
</g>
<!-- app__ApplyRequest -->
<g id="node8" class="node">
<title>app__ApplyRequest</title>
<ellipse fill="#ffffff" fill-opacity="0.698039" stroke="#000000" cx="392" cy="-754" rx="63.0888" ry="18"/>
<text text-anchor="middle" x="392" y="-750.3" font-family="Times,serif" font-size="14.00" fill="#000000">ApplyRequest</text>
</g>
<!-- app&#45;&gt;app__ApplyRequest -->
<g id="edge26" class="edge">
<title>app&#45;&gt;app__ApplyRequest</title>
<path fill="none" stroke="#838b8b" stroke-dasharray="5,2" d="M935.4459,-891.5329C849.6303,-869.815 570.3644,-799.1397 449.0835,-768.4464"/>
<polygon fill="#838b8b" stroke="#838b8b" points="449.7905,-765.0151 439.2374,-765.9546 448.0731,-771.8011 449.7905,-765.0151"/>
</g>
<!-- app__FinishGenRequest -->
<g id="node9" class="node">
<title>app__FinishGenRequest</title>
<ellipse fill="#ffffff" fill-opacity="0.698039" stroke="#000000" cx="667" cy="-754" rx="77.9862" ry="18"/>
<text text-anchor="middle" x="667" y="-750.3" font-family="Times,serif" font-size="14.00" fill="#000000">FinishGenRequest</text>
</g>
<!-- app&#45;&gt;app__FinishGenRequest -->
<g id="edge25" class="edge">
<title>app&#45;&gt;app__FinishGenRequest</title>
<path fill="none" stroke="#838b8b" stroke-dasharray="5,2" d="M938.9022,-887.1766C890.2533,-863.3486 773.18,-806.0065 709.6822,-774.9056"/>
<polygon fill="#838b8b" stroke="#838b8b" points="710.8636,-771.5869 700.3434,-770.3314 707.7844,-777.8734 710.8636,-771.5869"/>
</g>
<!-- app__IndexRequest -->
<g id="node10" class="node">
<title>app__IndexRequest</title>
<ellipse fill="#ffffff" fill-opacity="0.698039" stroke="#000000" cx="961" cy="-754" rx="60.3893" ry="18"/>
<text text-anchor="middle" x="961" y="-750.3" font-family="Times,serif" font-size="14.00" fill="#000000">IndexRequest</text>
</g>
<!-- app&#45;&gt;app__IndexRequest -->
<g id="edge29" class="edge">
<title>app&#45;&gt;app__IndexRequest</title>
<path fill="none" stroke="#838b8b" stroke-dasharray="5,2" d="M961,-879.7623C961,-855.201 961,-811.2474 961,-782.3541"/>
<polygon fill="#838b8b" stroke="#838b8b" points="964.5001,-782.0896 961,-772.0896 957.5001,-782.0897 964.5001,-782.0896"/>
</g>
<!-- app__JumpBirdRequest -->
<g id="node11" class="node">
<title>app__JumpBirdRequest</title>
<ellipse fill="#ffffff" fill-opacity="0.698039" stroke="#000000" cx="1554" cy="-754" rx="76.0865" ry="18"/>
<text text-anchor="middle" x="1554" y="-750.3" font-family="Times,serif" font-size="14.00" fill="#000000">JumpBirdRequest</text>
</g>
<!-- app&#45;&gt;app__JumpBirdRequest -->
<g id="edge27" class="edge">
<title>app&#45;&gt;app__JumpBirdRequest</title>
<path fill="none" stroke="#838b8b" stroke-dasharray="5,2" d="M986.4805,-891.8125C1073.7681,-870.6162 1362.4356,-800.5182 1491.1274,-769.2675"/>
<polygon fill="#838b8b" stroke="#838b8b" points="1491.9617,-772.6668 1500.8533,-766.9058 1490.3098,-765.8644 1491.9617,-772.6668"/>
</g>
<!-- app__SingleRequest -->
<g id="node12" class="node">
<title>app__SingleRequest</title>
<ellipse fill="#ffffff" fill-opacity="0.698039" stroke="#000000" cx="1265" cy="-754" rx="63.0888" ry="18"/>
<text text-anchor="middle" x="1265" y="-750.3" font-family="Times,serif" font-size="14.00" fill="#000000">SingleRequest</text>
</g>
<!-- app&#45;&gt;app__SingleRequest -->
<g id="edge28" class="edge">
<title>app&#45;&gt;app__SingleRequest</title>
<path fill="none" stroke="#838b8b" stroke-dasharray="5,2" d="M983.3538,-887.4113C1033.9316,-863.4535 1157.8132,-804.7727 1223.1276,-773.8343"/>
<polygon fill="#838b8b" stroke="#838b8b" points="1224.7844,-776.9223 1232.3235,-769.4783 1221.7878,-770.5962 1224.7844,-776.9223"/>
</g>
<!-- app__StartGenRequest -->
<g id="node13" class="node">
<title>app__StartGenRequest</title>
<ellipse fill="#ffffff" fill-opacity="0.698039" stroke="#000000" cx="1112" cy="-754" rx="72.2875" ry="18"/>
<text text-anchor="middle" x="1112" y="-750.3" font-family="Times,serif" font-size="14.00" fill="#000000">StartGenRequest</text>
</g>
<!-- app&#45;&gt;app__StartGenRequest -->
<g id="edge31" class="edge">
<title>app&#45;&gt;app__StartGenRequest</title>
<path fill="none" stroke="#838b8b" stroke-dasharray="5,2" d="M976.5909,-883.1318C1002.432,-858.4887 1054.4052,-808.9249 1085.9108,-778.8798"/>
<polygon fill="#838b8b" stroke="#838b8b" points="1088.63,-781.123 1093.4513,-771.6888 1083.799,-776.0573 1088.63,-781.123"/>
</g>
<!-- app__StartRequest -->
<g id="node14" class="node">
<title>app__StartRequest</title>
<ellipse fill="#ffffff" fill-opacity="0.698039" stroke="#000000" cx="1403" cy="-754" rx="57.3905" ry="18"/>
<text text-anchor="middle" x="1403" y="-750.3" font-family="Times,serif" font-size="14.00" fill="#000000">StartRequest</text>
</g>
<!-- app&#45;&gt;app__StartRequest -->
<g id="edge30" class="edge">
<title>app&#45;&gt;app__StartRequest</title>
<path fill="none" stroke="#838b8b" stroke-dasharray="5,2" d="M985.3934,-890.0528C1055.5723,-867.1891 1258.9947,-800.9157 1353.5736,-770.1027"/>
<polygon fill="#838b8b" stroke="#838b8b" points="1354.7713,-773.3937 1363.1952,-766.9681 1352.6029,-766.738 1354.7713,-773.3937"/>
</g>
<!-- config -->
<g id="node2" class="node">
<title>config</title>
<ellipse fill="#ffffff" fill-opacity="0.698039" stroke="#000000" cx="351" cy="-178" rx="33.5952" ry="18"/>
<text text-anchor="middle" x="351" y="-174.3" font-family="Times,serif" font-size="14.00" fill="#000000">config</text>
</g>
<!-- config__config -->
<g id="node15" class="node">
<title>config__config</title>
<ellipse fill="#ffffff" fill-opacity="0.698039" stroke="#000000" cx="351" cy="-34" rx="33.5952" ry="18"/>
<text text-anchor="middle" x="351" y="-30.3" font-family="Times,serif" font-size="14.00" fill="#000000">config</text>
</g>
<!-- config&#45;&gt;config__config -->
<g id="edge8" class="edge">
<title>config&#45;&gt;config__config</title>
<path fill="none" stroke="#838b8b" stroke-dasharray="5,2" d="M351,-159.7623C351,-135.201 351,-91.2474 351,-62.3541"/>
<polygon fill="#838b8b" stroke="#838b8b" points="354.5001,-62.0896 351,-52.0896 347.5001,-62.0897 354.5001,-62.0896"/>
</g>
<!-- database -->
<g id="node3" class="node">
<title>database</title>
<ellipse fill="#ffffff" fill-opacity="0.698039" stroke="#000000" cx="980" cy="-466" rx="42.4939" ry="18"/>
<text text-anchor="middle" x="980" y="-462.3" font-family="Times,serif" font-size="14.00" fill="#000000">database</text>
</g>
<!-- database&#45;&gt;config -->
<g id="edge47" class="edge">
<title>database&#45;&gt;config</title>
<path fill="none" stroke="#000000" d="M965.1493,-449.0019C935.4254,-416.0422 865.0883,-343.2441 791,-304 629.4121,-218.4079 566.9294,-255.4311 394,-196 391.5891,-195.1714 389.1205,-194.2743 386.6449,-193.3379"/>
<polygon fill="#000000" stroke="#000000" points="387.7554,-190.0134 377.1688,-189.5943 385.1834,-196.5238 387.7554,-190.0134"/>
</g>
<!-- database__Database -->
<g id="node16" class="node">
<title>database__Database</title>
<ellipse fill="#ffffff" fill-opacity="0.698039" stroke="#000000" cx="980" cy="-322" rx="44.393" ry="18"/>
<text text-anchor="middle" x="980" y="-318.3" font-family="Times,serif" font-size="14.00" fill="#000000">Database</text>
</g>
<!-- database&#45;&gt;database__Database -->
<g id="edge9" class="edge">
<title>database&#45;&gt;database__Database</title>
<path fill="none" stroke="#838b8b" stroke-dasharray="5,2" d="M980,-447.7623C980,-423.201 980,-379.2474 980,-350.3541"/>
<polygon fill="#838b8b" stroke="#838b8b" points="983.5001,-350.0896 980,-340.0896 976.5001,-350.0897 983.5001,-350.0896"/>
</g>
<!-- gameservices&#45;&gt;database -->
<g id="edge61" class="edge">
<title>gameservices&#45;&gt;database</title>
<path fill="none" stroke="#000000" d="M795.485,-737.9202C750.195,-709.3418 668.3375,-647.4836 704,-592 753.7431,-514.6097 864.0804,-484.1699 929.1772,-472.6391"/>
<polygon fill="#000000" stroke="#000000" points="929.9409,-476.0598 939.2202,-470.9465 928.7776,-469.1571 929.9409,-476.0598"/>
</g>
<!-- genetic -->
<g id="node5" class="node">
<title>genetic</title>
<ellipse fill="#ffffff" fill-opacity="0.698039" stroke="#000000" cx="437" cy="-610" rx="37.0935" ry="18"/>
<text text-anchor="middle" x="437" y="-606.3" font-family="Times,serif" font-size="14.00" fill="#000000">genetic</text>
</g>
<!-- gameservices&#45;&gt;genetic -->
<g id="edge57" class="edge">
<title>gameservices&#45;&gt;genetic</title>
<path fill="none" stroke="#000000" d="M784.6736,-740.053C721.624,-717.0517 592.125,-669.5669 483,-628 480.6158,-627.0918 478.1645,-626.1517 475.694,-625.1992"/>
<polygon fill="#000000" stroke="#000000" points="476.7595,-621.8585 466.1705,-621.5062 474.2286,-628.3849 476.7595,-621.8585"/>
</g>
<!-- net -->
<g id="node6" class="node">
<title>net</title>
<ellipse fill="#ffffff" fill-opacity="0.698039" stroke="#000000" cx="1625" cy="-466" rx="27" ry="18"/>
<text text-anchor="middle" x="1625" y="-462.3" font-family="Times,serif" font-size="14.00" fill="#000000">net</text>
</g>
<!-- gameservices&#45;&gt;net -->
<g id="edge59" class="edge">
<title>gameservices&#45;&gt;net</title>
<path fill="none" stroke="#000000" d="M802.117,-737.0567C765.9664,-705.7401 699.2349,-637.8202 739,-592 795.8038,-526.5465 1426.6342,-479.4732 1587.7257,-468.462"/>
<polygon fill="#000000" stroke="#000000" points="1588.333,-471.9289 1598.0733,-467.7603 1587.8594,-464.945 1588.333,-471.9289"/>
</g>
<!-- gameservices&#45;&gt;database__Database -->
<g id="edge60" class="edge">
<title>gameservices&#45;&gt;database__Database</title>
<path fill="none" stroke="#000000" d="M798.9989,-737.4493C758.6988,-707.6131 685.2751,-643.1547 722,-592 809.5391,-470.0653 954.4609,-605.9347 1042,-484 1072.9236,-440.926 1031.9777,-380.4667 1003.3975,-346.9148"/>
<polygon fill="#000000" stroke="#000000" points="1005.6739,-344.2022 996.449,-338.9914 1000.4109,-348.8176 1005.6739,-344.2022"/>
</g>
<!-- database__Database____init__ -->
<g id="node18" class="node">
<title>database__Database____init__</title>
<ellipse fill="#ffffff" fill-opacity="0.698039" stroke="#000000" cx="866" cy="-178" rx="40.8928" ry="18"/>
<text text-anchor="middle" x="866" y="-174.3" font-family="Times,serif" font-size="14.00" fill="#000000">__init__</text>
</g>
<!-- gameservices&#45;&gt;database__Database____init__ -->
<g id="edge58" class="edge">
<title>gameservices&#45;&gt;database__Database____init__</title>
<path fill="none" stroke="#000000" d="M792.9013,-738.2305C746.3266,-711.515 664.7503,-654.1646 691,-592 717.7756,-528.5899 768.8412,-544.3181 802,-484 852.8623,-391.4779 863.3808,-262.8752 865.4996,-206.4513"/>
<polygon fill="#000000" stroke="#000000" points="869.0071,-206.2654 865.8209,-196.161 862.0105,-206.0469 869.0071,-206.2654"/>
</g>
<!-- gameservices__apply_request -->
<g id="node27" class="node">
<title>gameservices__apply_request</title>
<ellipse fill="#ffffff" fill-opacity="0.698039" stroke="#000000" cx="320" cy="-610" rx="61.99" ry="18"/>
<text text-anchor="middle" x="320" y="-606.3" font-family="Times,serif" font-size="14.00" fill="#000000">apply_request</text>
</g>
<!-- gameservices&#45;&gt;gameservices__apply_request -->
<g id="edge34" class="edge">
<title>gameservices&#45;&gt;gameservices__apply_request</title>
<path fill="none" stroke="#838b8b" stroke-dasharray="5,2" d="M779.242,-741.4729C687.2945,-715.1499 474.2633,-654.1629 374.0068,-625.4612"/>
<polygon fill="#838b8b" stroke="#838b8b" points="374.9522,-622.0913 364.3751,-622.7038 373.0255,-628.821 374.9522,-622.0913"/>
</g>
<!-- gameservices__finish_gen_request -->
<g id="node28" class="node">
<title>gameservices__finish_gen_request</title>
<ellipse fill="#ffffff" fill-opacity="0.698039" stroke="#000000" cx="571" cy="-610" rx="79.0865" ry="18"/>
<text text-anchor="middle" x="571" y="-606.3" font-family="Times,serif" font-size="14.00" fill="#000000">finish_gen_request</text>
</g>
<!-- gameservices&#45;&gt;gameservices__finish_gen_request -->
<g id="edge32" class="edge">
<title>gameservices&#45;&gt;gameservices__finish_gen_request</title>
<path fill="none" stroke="#838b8b" stroke-dasharray="5,2" d="M795.0687,-738.0393C749.8564,-712.2036 660.5559,-661.1748 609.3982,-631.9418"/>
<polygon fill="#838b8b" stroke="#838b8b" points="611.0327,-628.8447 600.6137,-626.9221 607.5597,-634.9224 611.0327,-628.8447"/>
</g>
<!-- gameservices__jump_bird_request -->
<g id="node29" class="node">
<title>gameservices__jump_bird_request</title>
<ellipse fill="#ffffff" fill-opacity="0.698039" stroke="#000000" cx="1127" cy="-610" rx="79.0865" ry="18"/>
<text text-anchor="middle" x="1127" y="-606.3" font-family="Times,serif" font-size="14.00" fill="#000000">jump_bird_request</text>
</g>
<!-- gameservices&#45;&gt;gameservices__jump_bird_request -->
<g id="edge36" class="edge">
<title>gameservices&#45;&gt;gameservices__jump_bird_request</title>
<path fill="none" stroke="#838b8b" stroke-dasharray="5,2" d="M855.2455,-738.7258C910.0415,-712.7698 1021.3843,-660.0285 1083.1872,-630.7534"/>
<polygon fill="#838b8b" stroke="#838b8b" points="1084.7601,-633.8813 1092.2991,-626.4372 1081.7634,-627.5551 1084.7601,-633.8813"/>
</g>
<!-- gameservices__start_gen_request -->
<g id="node30" class="node">
<title>gameservices__start_gen_request</title>
<ellipse fill="#ffffff" fill-opacity="0.698039" stroke="#000000" cx="823" cy="-610" rx="74.9875" ry="18"/>
<text text-anchor="middle" x="823" y="-606.3" font-family="Times,serif" font-size="14.00" fill="#000000">start_gen_request</text>
</g>
<!-- gameservices&#45;&gt;gameservices__start_gen_request -->
<g id="edge35" class="edge">
<title>gameservices&#45;&gt;gameservices__start_gen_request</title>
<path fill="none" stroke="#838b8b" stroke-dasharray="5,2" d="M823,-735.7623C823,-711.201 823,-667.2474 823,-638.3541"/>
<polygon fill="#838b8b" stroke="#838b8b" points="826.5001,-638.0896 823,-628.0896 819.5001,-638.0897 826.5001,-638.0896"/>
</g>
<!-- gameservices__start_request -->
<g id="node31" class="node">
<title>gameservices__start_request</title>
<ellipse fill="#ffffff" fill-opacity="0.698039" stroke="#000000" cx="973" cy="-610" rx="57.3905" ry="18"/>
<text text-anchor="middle" x="973" y="-606.3" font-family="Times,serif" font-size="14.00" fill="#000000">start_request</text>
</g>
<!-- gameservices&#45;&gt;gameservices__start_request -->
<g id="edge33" class="edge">
<title>gameservices&#45;&gt;gameservices__start_request</title>
<path fill="none" stroke="#838b8b" stroke-dasharray="5,2" d="M841.0935,-736.6302C867.6718,-711.1151 917.3801,-663.3951 947.604,-634.3801"/>
<polygon fill="#838b8b" stroke="#838b8b" points="950.0523,-636.8816 954.8423,-627.4314 945.2046,-631.8319 950.0523,-636.8816"/>
</g>
<!-- genetic&#45;&gt;database -->
<g id="edge38" class="edge">
<title>genetic&#45;&gt;database</title>
<path fill="none" stroke="#000000" d="M465.511,-598.2074C471.255,-596.0122 477.2843,-593.8349 483,-592 645.1977,-539.9294 842.6354,-495.2963 931.9826,-476.0799"/>
<polygon fill="#000000" stroke="#000000" points="932.7777,-479.4891 941.823,-473.9725 931.3117,-472.6443 932.7777,-479.4891"/>
</g>
<!-- genetic&#45;&gt;net -->
<g id="edge37" class="edge">
<title>genetic&#45;&gt;net</title>
<path fill="none" stroke="#000000" d="M464.839,-597.7586C470.7429,-595.5461 477.0045,-593.4763 483,-592 908.1441,-487.3119 1443.8288,-469.5157 1587.9147,-466.5692"/>
<polygon fill="#000000" stroke="#000000" points="1588.0579,-470.0672 1597.9884,-466.3748 1587.9227,-463.0685 1588.0579,-470.0672"/>
</g>
<!-- genetic__crossover_method -->
<g id="node32" class="node">
<title>genetic__crossover_method</title>
<ellipse fill="#ffffff" fill-opacity="0.698039" stroke="#000000" cx="341" cy="-322" rx="77.1866" ry="18"/>
<text text-anchor="middle" x="341" y="-318.3" font-family="Times,serif" font-size="14.00" fill="#000000">crossover_method</text>
</g>
<!-- genetic&#45;&gt;genetic__crossover_method -->
<g id="edge1" class="edge">
<title>genetic&#45;&gt;genetic__crossover_method</title>
<path fill="none" stroke="#838b8b" stroke-dasharray="5,2" d="M421.1336,-593.3075C400.6997,-570.6243 366.0311,-527.8431 351,-484 335.6465,-439.2166 336.1384,-383.4401 338.2904,-350.388"/>
<polygon fill="#838b8b" stroke="#838b8b" points="341.8043,-350.333 339.0634,-340.0989 334.824,-349.8086 341.8043,-350.333"/>
</g>
<!-- genetic__genetic_algorithm -->
<g id="node33" class="node">
<title>genetic__genetic_algorithm</title>
<ellipse fill="#ffffff" fill-opacity="0.698039" stroke="#000000" cx="437" cy="-466" rx="76.8869" ry="18"/>
<text text-anchor="middle" x="437" y="-462.3" font-family="Times,serif" font-size="14.00" fill="#000000">genetic_algorithm</text>
</g>
<!-- genetic&#45;&gt;genetic__genetic_algorithm -->
<g id="edge5" class="edge">
<title>genetic&#45;&gt;genetic__genetic_algorithm</title>
<path fill="none" stroke="#838b8b" stroke-dasharray="5,2" d="M437,-591.7623C437,-567.201 437,-523.2474 437,-494.3541"/>
<polygon fill="#838b8b" stroke="#838b8b" points="440.5001,-494.0896 437,-484.0896 433.5001,-494.0897 440.5001,-494.0896"/>
</g>
<!-- genetic__make_matrix -->
<g id="node34" class="node">
<title>genetic__make_matrix</title>
<ellipse fill="#ffffff" fill-opacity="0.698039" stroke="#000000" cx="241" cy="-178" rx="58.4896" ry="18"/>
<text text-anchor="middle" x="241" y="-174.3" font-family="Times,serif" font-size="14.00" fill="#000000">make_matrix</text>
</g>
<!-- genetic&#45;&gt;genetic__make_matrix -->
<g id="edge3" class="edge">
<title>genetic&#45;&gt;genetic__make_matrix</title>
<path fill="none" stroke="#838b8b" stroke-dasharray="5,2" d="M461.0417,-596.0717C546.7936,-545.5767 829.7395,-371.5532 776,-304 643.1061,-136.9455 515.1111,-247.7009 308,-196 303.6762,-194.9207 299.2028,-193.7773 294.7131,-192.611"/>
<polygon fill="#838b8b" stroke="#838b8b" points="295.4716,-189.1916 284.9106,-190.037 293.6937,-195.9621 295.4716,-189.1916"/>
</g>
<!-- genetic__make_odict -->
<g id="node35" class="node">
<title>genetic__make_odict</title>
<ellipse fill="#ffffff" fill-opacity="0.698039" stroke="#000000" cx="111" cy="-178" rx="53.0913" ry="18"/>
<text text-anchor="middle" x="111" y="-174.3" font-family="Times,serif" font-size="14.00" fill="#000000">make_odict</text>
</g>
<!-- genetic&#45;&gt;genetic__make_odict -->
<g id="edge6" class="edge">
<title>genetic&#45;&gt;genetic__make_odict</title>
<path fill="none" stroke="#838b8b" stroke-dasharray="5,2" d="M411.0069,-597.065C327.6985,-555.0163 70.2579,-420.2822 27,-340 .775,-291.3292 49.3377,-233.7349 82.9121,-201.9998"/>
<polygon fill="#838b8b" stroke="#838b8b" points="85.6591,-204.2286 90.6517,-194.8838 80.9213,-199.0756 85.6591,-204.2286"/>
</g>
<!-- genetic__mutation_method -->
<g id="node36" class="node">
<title>genetic__mutation_method</title>
<ellipse fill="#ffffff" fill-opacity="0.698039" stroke="#000000" cx="111" cy="-322" rx="74.9875" ry="18"/>
<text text-anchor="middle" x="111" y="-318.3" font-family="Times,serif" font-size="14.00" fill="#000000">mutation_method</text>
</g>
<!-- genetic&#45;&gt;genetic__mutation_method -->
<g id="edge4" class="edge">
<title>genetic&#45;&gt;genetic__mutation_method</title>
<path fill="none" stroke="#838b8b" stroke-dasharray="5,2" d="M419.0085,-594.1056C364.9898,-546.3836 203.9362,-404.1031 138.7995,-346.5591"/>
<polygon fill="#838b8b" stroke="#838b8b" points="140.7957,-343.6524 130.9841,-339.6547 136.1612,-348.8985 140.7957,-343.6524"/>
</g>
<!-- genetic__reinsertion_method -->
<g id="node37" class="node">
<title>genetic__reinsertion_method</title>
<ellipse fill="#ffffff" fill-opacity="0.698039" stroke="#000000" cx="518" cy="-322" rx="81.4863" ry="18"/>
<text text-anchor="middle" x="518" y="-318.3" font-family="Times,serif" font-size="14.00" fill="#000000">reinsertion_method</text>
</g>
<!-- genetic&#45;&gt;genetic__reinsertion_method -->
<g id="edge2" class="edge">
<title>genetic&#45;&gt;genetic__reinsertion_method</title>
<path fill="none" stroke="#838b8b" stroke-dasharray="5,2" d="M453.2744,-593.4404C474.1599,-570.9043 509.3273,-528.2855 523,-484 537.0067,-438.6328 530.3765,-382.6896 524.2291,-349.8225"/>
<polygon fill="#838b8b" stroke="#838b8b" points="527.66,-349.1303 522.2769,-340.0049 520.7945,-350.4955 527.66,-349.1303"/>
</g>
<!-- genetic__selection_method -->
<g id="node38" class="node">
<title>genetic__selection_method</title>
<ellipse fill="#ffffff" fill-opacity="0.698039" stroke="#000000" cx="692" cy="-322" rx="74.9875" ry="18"/>
<text text-anchor="middle" x="692" y="-318.3" font-family="Times,serif" font-size="14.00" fill="#000000">selection_method</text>
</g>
<!-- genetic&#45;&gt;genetic__selection_method -->
<g id="edge7" class="edge">
<title>genetic&#45;&gt;genetic__selection_method</title>
<path fill="none" stroke="#838b8b" stroke-dasharray="5,2" d="M451.8121,-593.2711C494.5522,-544.9999 618.2958,-405.2424 669.4547,-347.4629"/>
<polygon fill="#838b8b" stroke="#838b8b" points="672.1671,-349.6793 676.1758,-339.8721 666.9262,-345.0389 672.1671,-349.6793"/>
</g>
<!-- net__Net -->
<g id="node39" class="node">
<title>net__Net</title>
<ellipse fill="#ffffff" fill-opacity="0.698039" stroke="#000000" cx="1671" cy="-178" rx="27" ry="18"/>
<text text-anchor="middle" x="1671" y="-174.3" font-family="Times,serif" font-size="14.00" fill="#000000">Net</text>
</g>
<!-- net&#45;&gt;net__Net -->
<g id="edge21" class="edge">
<title>net&#45;&gt;net__Net</title>
<path fill="none" stroke="#838b8b" stroke-dasharray="5,2" d="M1624.8455,-447.8735C1624.8725,-417.7685 1626.1341,-355.6568 1635,-304 1640.953,-269.3152 1652.856,-230.5423 1661.3449,-205.2857"/>
<polygon fill="#838b8b" stroke="#838b8b" points="1664.7118,-206.2566 1664.6347,-195.662 1658.0881,-203.9923 1664.7118,-206.2566"/>
</g>
<!-- net__generate_net -->
<g id="node40" class="node">
<title>net__generate_net</title>
<ellipse fill="#ffffff" fill-opacity="0.698039" stroke="#000000" cx="1701" cy="-322" rx="57.3905" ry="18"/>
<text text-anchor="middle" x="1701" y="-318.3" font-family="Times,serif" font-size="14.00" fill="#000000">generate_net</text>
</g>
<!-- net&#45;&gt;net__generate_net -->
<g id="edge20" class="edge">
<title>net&#45;&gt;net__generate_net</title>
<path fill="none" stroke="#838b8b" stroke-dasharray="5,2" d="M1634.0166,-448.9158C1647.0732,-424.1771 1671.369,-378.1429 1686.8335,-348.8418"/>
<polygon fill="#838b8b" stroke="#838b8b" points="1689.9463,-350.4422 1691.5186,-339.9647 1683.7556,-347.1749 1689.9463,-350.4422"/>
</g>
<!-- app__ApplyRequest&#45;&gt;gameservices__apply_request -->
<g id="edge52" class="edge">
<title>app__ApplyRequest&#45;&gt;gameservices__apply_request</title>
<path fill="none" stroke="#000000" d="M383.0267,-736.0535C370.6309,-711.2618 348.1603,-666.3207 333.6689,-637.3378"/>
<polygon fill="#000000" stroke="#000000" points="336.689,-635.5517 329.0864,-628.1727 330.428,-638.6823 336.689,-635.5517"/>
</g>
<!-- app__FinishGenRequest&#45;&gt;gameservices__finish_gen_request -->
<g id="edge55" class="edge">
<title>app__FinishGenRequest&#45;&gt;gameservices__finish_gen_request</title>
<path fill="none" stroke="#000000" d="M655.0356,-736.0535C638.3641,-711.0462 608.0251,-665.5376 588.7236,-636.5853"/>
<polygon fill="#000000" stroke="#000000" points="591.5744,-634.5518 583.1151,-628.1727 585.75,-638.4347 591.5744,-634.5518"/>
</g>
<!-- app__JumpBirdRequest&#45;&gt;gameservices__jump_bird_request -->
<g id="edge56" class="edge">
<title>app__JumpBirdRequest&#45;&gt;gameservices__jump_bird_request</title>
<path fill="none" stroke="#000000" d="M1510.3102,-739.2662C1431.7181,-712.7621 1266.733,-657.1231 1181.1232,-628.2523"/>
<polygon fill="#000000" stroke="#000000" points="1182.1824,-624.9159 1171.5883,-625.0368 1179.9455,-631.5489 1182.1824,-624.9159"/>
</g>
<!-- app__StartGenRequest&#45;&gt;gameservices__start_gen_request -->
<g id="edge54" class="edge">
<title>app__StartGenRequest&#45;&gt;gameservices__start_gen_request</title>
<path fill="none" stroke="#000000" d="M1079.6893,-737.9005C1027.0884,-711.6911 922.9853,-659.8196 864.8158,-630.8356"/>
<polygon fill="#000000" stroke="#000000" points="866.0562,-627.5432 855.5448,-626.2161 862.9344,-633.8086 866.0562,-627.5432"/>
</g>
<!-- app__StartRequest&#45;&gt;gameservices__start_request -->
<g id="edge53" class="edge">
<title>app__StartRequest&#45;&gt;gameservices__start_request</title>
<path fill="none" stroke="#000000" d="M1363.7004,-740.8392C1284.9458,-714.4656 1107.9935,-655.2071 1021.9016,-626.3763"/>
<polygon fill="#000000" stroke="#000000" points="1022.9573,-623.0389 1012.3634,-623.1822 1020.7344,-629.6766 1022.9573,-623.0389"/>
</g>
<!-- database__Database____del__ -->
<g id="node17" class="node">
<title>database__Database____del__</title>
<ellipse fill="#ffffff" fill-opacity="0.698039" stroke="#000000" cx="1229" cy="-178" rx="40.0939" ry="18"/>
<text text-anchor="middle" x="1229" y="-174.3" font-family="Times,serif" font-size="14.00" fill="#000000">__del__</text>
</g>
<!-- database__Database&#45;&gt;database__Database____del__ -->
<g id="edge17" class="edge">
<title>database__Database&#45;&gt;database__Database____del__</title>
<path fill="none" stroke="#838b8b" stroke-dasharray="5,2" d="M1005.7095,-307.1318C1050.979,-280.9519 1144.8829,-226.646 1195.2862,-197.4972"/>
<polygon fill="#838b8b" stroke="#838b8b" points="1197.2653,-200.3958 1204.1698,-192.3596 1193.7609,-194.3361 1197.2653,-200.3958"/>
</g>
<!-- database__Database&#45;&gt;database__Database____init__ -->
<g id="edge14" class="edge">
<title>database__Database&#45;&gt;database__Database____init__</title>
<path fill="none" stroke="#838b8b" stroke-dasharray="5,2" d="M966.2489,-304.6302C946.3062,-279.4394 909.2288,-232.6048 886.184,-203.4956"/>
<polygon fill="#838b8b" stroke="#838b8b" points="888.7511,-201.0994 879.7998,-195.4314 883.2627,-205.4443 888.7511,-201.0994"/>
</g>
<!-- database__Database__create_tables -->
<g id="node19" class="node">
<title>database__Database__create_tables</title>
<ellipse fill="#ffffff" fill-opacity="0.698039" stroke="#000000" cx="461" cy="-178" rx="58.4896" ry="18"/>
<text text-anchor="middle" x="461" y="-174.3" font-family="Times,serif" font-size="14.00" fill="#000000">create_tables</text>
</g>
<!-- database__Database&#45;&gt;database__Database__create_tables -->
<g id="edge18" class="edge">
<title>database__Database&#45;&gt;database__Database__create_tables</title>
<path fill="none" stroke="#838b8b" stroke-dasharray="5,2" d="M943.0909,-311.7593C852.6796,-286.6741 619.8481,-222.0735 514.3581,-192.8046"/>
<polygon fill="#838b8b" stroke="#838b8b" points="515.1277,-189.3859 504.5559,-190.0849 513.2561,-196.1311 515.1277,-189.3859"/>
</g>
<!-- database__Database__insert_bird -->
<g id="node20" class="node">
<title>database__Database__insert_bird</title>
<ellipse fill="#ffffff" fill-opacity="0.698039" stroke="#000000" cx="1576" cy="-178" rx="50.0912" ry="18"/>
<text text-anchor="middle" x="1576" y="-174.3" font-family="Times,serif" font-size="14.00" fill="#000000">insert_bird</text>
</g>
<!-- database__Database&#45;&gt;database__Database__insert_bird -->
<g id="edge10" class="edge">
<title>database__Database&#45;&gt;database__Database__insert_bird</title>
<path fill="none" stroke="#838b8b" stroke-dasharray="5,2" d="M1019.3003,-313.7055C1108.3378,-294.7117 1332.0779,-245.8456 1517,-196 1520.7887,-194.9788 1524.7015,-193.8811 1528.6252,-192.7499"/>
<polygon fill="#838b8b" stroke="#838b8b" points="1529.7311,-196.0729 1538.3368,-189.893 1527.7555,-189.3575 1529.7311,-196.0729"/>
</g>
<!-- database__Database__insert_cycle -->
<g id="node21" class="node">
<title>database__Database__insert_cycle</title>
<ellipse fill="#ffffff" fill-opacity="0.698039" stroke="#000000" cx="980" cy="-178" rx="54.6905" ry="18"/>
<text text-anchor="middle" x="980" y="-174.3" font-family="Times,serif" font-size="14.00" fill="#000000">insert_cycle</text>
</g>
<!-- database__Database&#45;&gt;database__Database__insert_cycle -->
<g id="edge13" class="edge">
<title>database__Database&#45;&gt;database__Database__insert_cycle</title>
<path fill="none" stroke="#838b8b" stroke-dasharray="5,2" d="M980,-303.7623C980,-279.201 980,-235.2474 980,-206.3541"/>
<polygon fill="#838b8b" stroke="#838b8b" points="983.5001,-206.0896 980,-196.0896 976.5001,-206.0897 983.5001,-206.0896"/>
</g>
<!-- database__Database__insert_fitness -->
<g id="node22" class="node">
<title>database__Database__insert_fitness</title>
<ellipse fill="#ffffff" fill-opacity="0.698039" stroke="#000000" cx="749" cy="-178" rx="58.4896" ry="18"/>
<text text-anchor="middle" x="749" y="-174.3" font-family="Times,serif" font-size="14.00" fill="#000000">insert_fitness</text>
</g>
<!-- database__Database&#45;&gt;database__Database__insert_fitness -->
<g id="edge15" class="edge">
<title>database__Database&#45;&gt;database__Database__insert_fitness</title>
<path fill="none" stroke="#838b8b" stroke-dasharray="5,2" d="M955.7156,-306.8616C914.5804,-281.219 831.065,-229.1574 783.7458,-199.6597"/>
<polygon fill="#838b8b" stroke="#838b8b" points="785.4066,-196.5707 775.0688,-194.2507 781.7035,-202.511 785.4066,-196.5707"/>
</g>
<!-- database__Database__select_bird -->
<g id="node23" class="node">
<title>database__Database__select_bird</title>
<ellipse fill="#ffffff" fill-opacity="0.698039" stroke="#000000" cx="1457" cy="-178" rx="50.8918" ry="18"/>
<text text-anchor="middle" x="1457" y="-174.3" font-family="Times,serif" font-size="14.00" fill="#000000">select_bird</text>
</g>
<!-- database__Database&#45;&gt;database__Database__select_bird -->
<g id="edge16" class="edge">
<title>database__Database&#45;&gt;database__Database__select_bird</title>
<path fill="none" stroke="#838b8b" stroke-dasharray="5,2" d="M1015.7974,-311.2533C1088.0654,-289.5482 1256.5611,-238.8927 1398,-196 1401.4844,-194.9433 1405.084,-193.8498 1408.7067,-192.7479"/>
<polygon fill="#838b8b" stroke="#838b8b" points="1409.7399,-196.092 1418.2869,-189.831 1407.701,-189.3955 1409.7399,-196.092"/>
</g>
<!-- database__Database__select_fitness -->
<g id="node24" class="node">
<title>database__Database__select_fitness</title>
<ellipse fill="#ffffff" fill-opacity="0.698039" stroke="#000000" cx="1112" cy="-178" rx="59.2899" ry="18"/>
<text text-anchor="middle" x="1112" y="-174.3" font-family="Times,serif" font-size="14.00" fill="#000000">select_fitness</text>
</g>
<!-- database__Database&#45;&gt;database__Database__select_fitness -->
<g id="edge19" class="edge">
<title>database__Database&#45;&gt;database__Database__select_fitness</title>
<path fill="none" stroke="#838b8b" stroke-dasharray="5,2" d="M995.6605,-304.9158C1018.757,-279.7196 1062.103,-232.4331 1088.8691,-203.2337"/>
<polygon fill="#838b8b" stroke="#838b8b" points="1091.771,-205.2476 1095.9482,-195.511 1086.6109,-200.5175 1091.771,-205.2476"/>
</g>
<!-- database__Database__select_game_id -->
<g id="node25" class="node">
<title>database__Database__select_game_id</title>
<ellipse fill="#ffffff" fill-opacity="0.698039" stroke="#000000" cx="605" cy="-178" rx="67.6881" ry="18"/>
<text text-anchor="middle" x="605" y="-174.3" font-family="Times,serif" font-size="14.00" fill="#000000">select_game_id</text>
</g>
<!-- database__Database&#45;&gt;database__Database__select_game_id -->
<g id="edge12" class="edge">
<title>database__Database&#45;&gt;database__Database__select_game_id</title>
<path fill="none" stroke="#838b8b" stroke-dasharray="5,2" d="M947.7031,-309.598C881.6839,-284.2466 730.9694,-226.3722 653.2796,-196.5394"/>
<polygon fill="#838b8b" stroke="#838b8b" points="654.3144,-193.1876 643.7243,-192.8701 651.805,-199.7224 654.3144,-193.1876"/>
</g>
<!-- database__Database__update_net -->
<g id="node26" class="node">
<title>database__Database__update_net</title>
<ellipse fill="#ffffff" fill-opacity="0.698039" stroke="#000000" cx="1338" cy="-178" rx="50.8918" ry="18"/>
<text text-anchor="middle" x="1338" y="-174.3" font-family="Times,serif" font-size="14.00" fill="#000000">update_net</text>
</g>
<!-- database__Database&#45;&gt;database__Database__update_net -->
<g id="edge11" class="edge">
<title>database__Database&#45;&gt;database__Database__update_net</title>
<path fill="none" stroke="#838b8b" stroke-dasharray="5,2" d="M1011.4563,-309.3472C1075.7113,-283.5016 1222.1052,-224.6169 1295.0443,-195.2783"/>
<polygon fill="#838b8b" stroke="#838b8b" points="1296.439,-198.4899 1304.4105,-191.5109 1293.8267,-191.9955 1296.439,-198.4899"/>
</g>
<!-- database__Database____init__&#45;&gt;config__config -->
<g id="edge48" class="edge">
<title>database__Database____init__&#45;&gt;config__config</title>
<path fill="none" stroke="#000000" d="M834.6586,-166.2789C828.5031,-164.1012 822.0719,-161.9121 816,-160 660.8844,-111.1516 473.1554,-63.8213 391.8322,-43.8814"/>
<polygon fill="#000000" stroke="#000000" points="392.5377,-40.4508 381.9925,-41.4752 390.8749,-47.2505 392.5377,-40.4508"/>
</g>
<!-- gameservices__apply_request&#45;&gt;database__Database__create_tables -->
<g id="edge64" class="edge">
<title>gameservices__apply_request&#45;&gt;database__Database__create_tables</title>
<path fill="none" stroke="#000000" d="M299.8729,-592.8553C275.5181,-570.6444 235.8118,-529.3576 220,-484 193.6661,-408.4585 178.5588,-372.4297 220,-304 241.8092,-267.9876 350.1967,-220.9999 413.9467,-195.807"/>
<polygon fill="#000000" stroke="#000000" points="415.3608,-199.012 423.3938,-192.1039 412.8061,-192.4948 415.3608,-199.012"/>
</g>
<!-- gameservices__apply_request&#45;&gt;database__Database__insert_cycle -->
<g id="edge63" class="edge">
<title>gameservices__apply_request&#45;&gt;database__Database__insert_cycle</title>
<path fill="none" stroke="#000000" d="M312.4555,-591.9818C288.4042,-533.2207 217.2792,-348.3841 255,-304 351.3853,-190.5883 770.688,-228.1991 916,-196 920.4301,-195.0184 925.0088,-193.9137 929.586,-192.747"/>
<polygon fill="#000000" stroke="#000000" points="930.7706,-196.0543 939.5458,-190.1175 928.9836,-189.2862 930.7706,-196.0543"/>
</g>
<!-- gameservices__apply_request&#45;&gt;database__Database__select_game_id -->
<g id="edge62" class="edge">
<title>gameservices__apply_request&#45;&gt;database__Database__select_game_id</title>
<path fill="none" stroke="#000000" d="M304.1701,-592.4286C284.647,-569.4544 252.511,-527.046 240,-484 217.6725,-407.1789 193.5693,-369.1475 240,-304 258.4552,-278.1053 450.0489,-221.3824 548.0012,-193.7517"/>
<polygon fill="#000000" stroke="#000000" points="549.0718,-197.0865 557.7511,-191.0103 547.177,-190.3478 549.0718,-197.0865"/>
</g>
<!-- gameservices__finish_gen_request&#45;&gt;database__Database -->
<g id="edge70" class="edge">
<title>gameservices__finish_gen_request&#45;&gt;database__Database</title>
<path fill="none" stroke="#000000" d="M640.6677,-601.216C757.2368,-584.9309 983.7262,-545.9641 1031,-484 1062.5736,-442.615 1026.3472,-381.2686 1000.8163,-347.1726"/>
<polygon fill="#000000" stroke="#000000" points="1003.4832,-344.8996 994.6036,-339.1201 997.9409,-349.1755 1003.4832,-344.8996"/>
</g>
<!-- gameservices__finish_gen_request&#45;&gt;database__Database__insert_fitness -->
<g id="edge69" class="edge">
<title>gameservices__finish_gen_request&#45;&gt;database__Database__insert_fitness</title>
<path fill="none" stroke="#000000" d="M623.7387,-596.4634C676.6398,-579.7601 755.2405,-545.6895 791,-484 843.8767,-392.7811 790.7509,-261.1692 763.2631,-205.0257"/>
<polygon fill="#000000" stroke="#000000" points="766.382,-203.437 758.7754,-196.0619 760.1226,-206.5708 766.382,-203.437"/>
</g>
<!-- gameservices__finish_gen_request&#45;&gt;genetic__genetic_algorithm -->
<g id="edge71" class="edge">
<title>gameservices__finish_gen_request&#45;&gt;genetic__genetic_algorithm</title>
<path fill="none" stroke="#000000" d="M554.569,-592.3428C531.0609,-567.0804 487.6958,-520.4791 460.7118,-491.4813"/>
<polygon fill="#000000" stroke="#000000" points="462.94,-488.738 453.5654,-483.8017 457.8155,-493.5067 462.94,-488.738"/>
</g>
<!-- gameservices__start_gen_request&#45;&gt;database__Database__select_bird -->
<g id="edge68" class="edge">
<title>gameservices__start_gen_request&#45;&gt;database__Database__select_bird</title>
<path fill="none" stroke="#000000" d="M856.0919,-593.6953C901.4016,-570.9475 984.7891,-527.5585 1052,-484 1200.2741,-387.9055 1364.718,-254.6336 1429.0529,-201.3626"/>
<polygon fill="#000000" stroke="#000000" points="1431.6428,-203.7615 1437.1025,-194.6817 1427.1722,-198.3751 1431.6428,-203.7615"/>
</g>
<!-- gameservices__start_request&#45;&gt;database__Database__insert_bird -->
<g id="edge65" class="edge">
<title>gameservices__start_request&#45;&gt;database__Database__insert_bird</title>
<path fill="none" stroke="#000000" d="M1011.7863,-596.6041C1084.3502,-571.1669 1237.5029,-515.5971 1284,-484 1405.3161,-401.5595 1515.0869,-261.4751 1557.4714,-203.891"/>
<polygon fill="#000000" stroke="#000000" points="1560.3866,-205.8338 1563.4585,-195.694 1554.7339,-201.705 1560.3866,-205.8338"/>
</g>
<!-- gameservices__start_request&#45;&gt;database__Database__insert_cycle -->
<g id="edge66" class="edge">
<title>gameservices__start_request&#45;&gt;database__Database__insert_cycle</title>
<path fill="none" stroke="#000000" d="M991.3521,-592.9435C1013.9948,-570.5131 1051.2971,-528.6787 1066,-484 1099.6727,-381.6766 1031.9882,-257.4789 997.9428,-204.2621"/>
<polygon fill="#000000" stroke="#000000" points="1000.7912,-202.2225 992.398,-195.7568 994.9272,-206.0453 1000.7912,-202.2225"/>
</g>
<!-- gameservices__start_request&#45;&gt;net__generate_net -->
<g id="edge67" class="edge">
<title>gameservices__start_request&#45;&gt;net__generate_net</title>
<path fill="none" stroke="#000000" d="M1015.4574,-597.7877C1023.2557,-595.7253 1031.3487,-593.7036 1039,-592 1312.8739,-531.0193 1455.7638,-675.3208 1661,-484 1697.8713,-449.6286 1703.0997,-387.1409 1702.6661,-350.6362"/>
<polygon fill="#000000" stroke="#000000" points="1706.1528,-350.1009 1702.3785,-340.2012 1699.1554,-350.2938 1706.1528,-350.1009"/>
</g>
<!-- genetic__crossover_method&#45;&gt;genetic__make_matrix -->
<g id="edge43" class="edge">
<title>genetic__crossover_method&#45;&gt;genetic__make_matrix</title>
<path fill="none" stroke="#000000" d="M328.5371,-304.0535C311.0761,-278.9096 279.222,-233.0396 259.1335,-204.1122"/>
<polygon fill="#000000" stroke="#000000" points="261.8846,-201.9377 253.3058,-195.7204 256.135,-205.9305 261.8846,-201.9377"/>
</g>
<!-- genetic__crossover_method&#45;&gt;genetic__make_odict -->
<g id="edge44" class="edge">
<title>genetic__crossover_method&#45;&gt;genetic__make_odict</title>
<path fill="none" stroke="#000000" d="M313.7128,-304.9158C271.6561,-278.5847 191.0659,-228.1282 145.1832,-199.4016"/>
<polygon fill="#000000" stroke="#000000" points="146.8243,-196.2997 136.4911,-193.9596 143.1096,-202.2328 146.8243,-196.2997"/>
</g>
<!-- genetic__genetic_algorithm&#45;&gt;genetic__crossover_method -->
<g id="edge41" class="edge">
<title>genetic__genetic_algorithm&#45;&gt;genetic__crossover_method</title>
<path fill="none" stroke="#000000" d="M425.0356,-448.0535C408.3641,-423.0462 378.0251,-377.5376 358.7236,-348.5853"/>
<polygon fill="#000000" stroke="#000000" points="361.5744,-346.5518 353.1151,-340.1727 355.75,-350.4347 361.5744,-346.5518"/>
</g>
<!-- genetic__genetic_algorithm&#45;&gt;genetic__mutation_method -->
<g id="edge42" class="edge">
<title>genetic__genetic_algorithm&#45;&gt;genetic__mutation_method</title>
<path fill="none" stroke="#000000" d="M400.8667,-450.0393C340.9822,-423.5872 221.3089,-370.7254 156.0225,-341.8872"/>
<polygon fill="#000000" stroke="#000000" points="157.3598,-338.6518 146.7983,-337.8127 154.5314,-345.0549 157.3598,-338.6518"/>
</g>
<!-- genetic__genetic_algorithm&#45;&gt;genetic__reinsertion_method -->
<g id="edge39" class="edge">
<title>genetic__genetic_algorithm&#45;&gt;genetic__reinsertion_method</title>
<path fill="none" stroke="#000000" d="M447.0949,-448.0535C461.1009,-423.154 486.5396,-377.9295 502.8346,-348.9606"/>
<polygon fill="#000000" stroke="#000000" points="505.9257,-350.6044 507.7778,-340.1727 499.8247,-347.1725 505.9257,-350.6044"/>
</g>
<!-- genetic__genetic_algorithm&#45;&gt;genetic__selection_method -->
<g id="edge40" class="edge">
<title>genetic__genetic_algorithm&#45;&gt;genetic__selection_method</title>
<path fill="none" stroke="#000000" d="M466.5009,-449.3407C512.7556,-423.2204 602.3411,-372.6309 653.5753,-343.6987"/>
<polygon fill="#000000" stroke="#000000" points="655.3848,-346.6964 662.3713,-338.7315 651.9428,-340.6011 655.3848,-346.6964"/>
</g>
<!-- genetic__mutation_method&#45;&gt;genetic__make_matrix -->
<g id="edge45" class="edge">
<title>genetic__mutation_method&#45;&gt;genetic__make_matrix</title>
<path fill="none" stroke="#000000" d="M126.9406,-304.3428C149.8708,-278.9431 192.2754,-231.9719 218.4214,-203.0101"/>
<polygon fill="#000000" stroke="#000000" points="221.232,-205.1199 225.3351,-195.3519 216.0361,-200.4292 221.232,-205.1199"/>
</g>
<!-- genetic__mutation_method&#45;&gt;genetic__make_odict -->
<g id="edge46" class="edge">
<title>genetic__mutation_method&#45;&gt;genetic__make_odict</title>
<path fill="none" stroke="#000000" d="M111,-303.7623C111,-279.201 111,-235.2474 111,-206.3541"/>
<polygon fill="#000000" stroke="#000000" points="114.5001,-206.0896 111,-196.0896 107.5001,-206.0897 114.5001,-206.0896"/>
</g>
<!-- net__Net____init__ -->
<g id="node41" class="node">
<title>net__Net____init__</title>
<ellipse fill="#ffffff" fill-opacity="0.698039" stroke="#000000" cx="1717" cy="-34" rx="40.8928" ry="18"/>
<text text-anchor="middle" x="1717" y="-30.3" font-family="Times,serif" font-size="14.00" fill="#000000">__init__</text>
</g>
<!-- net__Net&#45;&gt;net__Net____init__ -->
<g id="edge23" class="edge">
<title>net__Net&#45;&gt;net__Net____init__</title>
<path fill="none" stroke="#838b8b" stroke-dasharray="5,2" d="M1676.6405,-160.3428C1684.4951,-135.7545 1698.8073,-90.9511 1708.1068,-61.8397"/>
<polygon fill="#838b8b" stroke="#838b8b" points="1711.4592,-62.8468 1711.1682,-52.256 1704.7912,-60.7167 1711.4592,-62.8468"/>
</g>
<!-- net__Net__forward -->
<g id="node42" class="node">
<title>net__Net__forward</title>
<ellipse fill="#ffffff" fill-opacity="0.698039" stroke="#000000" cx="1618" cy="-34" rx="39.7935" ry="18"/>
<text text-anchor="middle" x="1618" y="-30.3" font-family="Times,serif" font-size="14.00" fill="#000000">forward</text>
</g>
<!-- net__Net&#45;&gt;net__Net__forward -->
<g id="edge22" class="edge">
<title>net__Net&#45;&gt;net__Net__forward</title>
<path fill="none" stroke="#838b8b" stroke-dasharray="5,2" d="M1664.5012,-160.3428C1655.4019,-135.6202 1638.7807,-90.4608 1628.0714,-61.3639"/>
<polygon fill="#838b8b" stroke="#838b8b" points="1631.2907,-59.9773 1624.552,-51.8017 1624.7215,-62.3951 1631.2907,-59.9773"/>
</g>
<!-- net__generate_net&#45;&gt;net__Net -->
<g id="edge50" class="edge">
<title>net__generate_net&#45;&gt;net__Net</title>
<path fill="none" stroke="#000000" d="M1697.2005,-303.7623C1692.061,-279.0928 1682.8458,-234.8598 1676.8277,-205.9731"/>
<polygon fill="#000000" stroke="#000000" points="1680.2347,-205.1656 1674.7687,-196.0896 1673.3819,-206.5933 1680.2347,-205.1656"/>
</g>
<!-- net__generate_net&#45;&gt;net__Net____init__ -->
<g id="edge49" class="edge">
<title>net__generate_net&#45;&gt;net__Net____init__</title>
<path fill="none" stroke="#000000" d="M1702.0009,-303.9843C1704.7059,-255.2939 1712.178,-120.7961 1715.4413,-62.0573"/>
<polygon fill="#000000" stroke="#000000" points="1718.9393,-62.1877 1715.9995,-52.0089 1711.9501,-61.7993 1718.9393,-62.1877"/>
</g>
</g>
</svg>
