<?xml version="1.0" encoding="UTF-8" standalone="no"?>
<!DOCTYPE svg PUBLIC "-//W3C//DTD SVG 1.1//EN"
 "http://www.w3.org/Graphics/SVG/1.1/DTD/svg11.dtd">
<!-- Generated by graphviz version 2.40.1 (20161225.0304)
 -->
<!-- Title: G Pages: 1 -->
<svg width="1725pt" height="652pt"
 viewBox="0.00 0.00 1725.00 652.00" xmlns="http://www.w3.org/2000/svg" xmlns:xlink="http://www.w3.org/1999/xlink">
<g id="graph0" class="graph" transform="scale(1 1) rotate(0) translate(4 648)">
<title>G</title>
<polygon fill="#ffffff" stroke="transparent" points="-4,4 -4,-648 1721,-648 1721,4 -4,4"/>
<g id="clust1" class="cluster">
<title>cluster_G</title>
<path fill="#808080" fill-opacity="0.094118" stroke="#000000" d="M20,-8C20,-8 1697,-8 1697,-8 1703,-8 1709,-14 1709,-20 1709,-20 1709,-624 1709,-624 1709,-630 1703,-636 1697,-636 1697,-636 20,-636 20,-636 14,-636 8,-630 8,-624 8,-624 8,-20 8,-20 8,-14 14,-8 20,-8"/>
</g>
<!-- app -->
<g id="node1" class="node">
<title>app</title>
<ellipse fill="#ffffff" fill-opacity="0.698039" stroke="#000000" cx="1674" cy="-610" rx="27" ry="18"/>
<text text-anchor="middle" x="1674" y="-606.3" font-family="Times,serif" font-size="14.00" fill="#000000">app</text>
</g>
<!-- gameservices -->
<g id="node4" class="node">
<title>gameservices</title>
<ellipse fill="#ffffff" fill-opacity="0.698039" stroke="#000000" cx="1572" cy="-466" rx="59.5901" ry="18"/>
<text text-anchor="middle" x="1572" y="-462.3" font-family="Times,serif" font-size="14.00" fill="#000000">gameservices</text>
</g>
<!-- app&#45;&gt;gameservices -->
<g id="edge15" class="edge">
<title>app&#45;&gt;gameservices</title>
<path fill="none" stroke="#000000" d="M1662.2993,-593.4814C1644.6773,-568.6033 1611.1721,-521.3018 1590.3008,-491.8364"/>
<polygon fill="#000000" stroke="#000000" points="1593.1531,-489.8079 1584.5168,-483.6707 1587.4409,-493.8541 1593.1531,-489.8079"/>
</g>
<!-- config -->
<g id="node2" class="node">
<title>config</title>
<ellipse fill="#ffffff" fill-opacity="0.698039" stroke="#000000" cx="1489" cy="-34" rx="33.5952" ry="18"/>
<text text-anchor="middle" x="1489" y="-30.3" font-family="Times,serif" font-size="14.00" fill="#000000">config</text>
</g>
<!-- database -->
<g id="node3" class="node">
<title>database</title>
<ellipse fill="#ffffff" fill-opacity="0.698039" stroke="#000000" cx="1489" cy="-178" rx="42.4939" ry="18"/>
<text text-anchor="middle" x="1489" y="-174.3" font-family="Times,serif" font-size="14.00" fill="#000000">database</text>
</g>
<!-- database&#45;&gt;config -->
<g id="edge11" class="edge">
<title>database&#45;&gt;config</title>
<path fill="none" stroke="#000000" d="M1489,-159.7623C1489,-135.201 1489,-91.2474 1489,-62.3541"/>
<polygon fill="#000000" stroke="#000000" points="1492.5001,-62.0896 1489,-52.0896 1485.5001,-62.0897 1492.5001,-62.0896"/>
</g>
<!-- gameservices&#45;&gt;database -->
<g id="edge25" class="edge">
<title>gameservices&#45;&gt;database</title>
<path fill="none" stroke="#000000" d="M1557.7087,-448.1032C1540.0211,-424.7851 1510.687,-382.0139 1498,-340 1484.3925,-294.9377 1484.7152,-239.6763 1486.5799,-206.7327"/>
<polygon fill="#000000" stroke="#000000" points="1490.0914,-206.6707 1487.2535,-196.463 1483.1064,-206.2125 1490.0914,-206.6707"/>
</g>
<!-- genetic -->
<g id="node5" class="node">
<title>genetic</title>
<ellipse fill="#ffffff" fill-opacity="0.698039" stroke="#000000" cx="1544" cy="-322" rx="37.0935" ry="18"/>
<text text-anchor="middle" x="1544" y="-318.3" font-family="Times,serif" font-size="14.00" fill="#000000">genetic</text>
</g>
<!-- gameservices&#45;&gt;genetic -->
<g id="edge21" class="edge">
<title>gameservices&#45;&gt;genetic</title>
<path fill="none" stroke="#000000" d="M1568.4538,-447.7623C1563.6569,-423.0928 1555.0561,-378.8598 1549.4392,-349.9731"/>
<polygon fill="#000000" stroke="#000000" points="1552.8619,-349.2377 1547.5174,-340.0896 1545.9905,-350.5738 1552.8619,-349.2377"/>
</g>
<!-- net -->
<g id="node6" class="node">
<title>net</title>
<ellipse fill="#ffffff" fill-opacity="0.698039" stroke="#000000" cx="1578" cy="-178" rx="27" ry="18"/>
<text text-anchor="middle" x="1578" y="-174.3" font-family="Times,serif" font-size="14.00" fill="#000000">net</text>
</g>
<!-- gameservices&#45;&gt;net -->
<g id="edge23" class="edge">
<title>gameservices&#45;&gt;net</title>
<path fill="none" stroke="#000000" d="M1575.4424,-447.7246C1579.8539,-423.2891 1587.2587,-378.5726 1590,-340 1593.3409,-292.9903 1587.2068,-238.3239 1582.5441,-206.0283"/>
<polygon fill="#000000" stroke="#000000" points="1585.981,-205.3463 1581.0351,-195.9768 1579.0586,-206.3857 1585.981,-205.3463"/>
</g>
<!-- database__Database -->
<g id="node16" class="node">
<title>database__Database</title>
<ellipse fill="#ffffff" fill-opacity="0.698039" stroke="#000000" cx="1425" cy="-322" rx="44.393" ry="18"/>
<text text-anchor="middle" x="1425" y="-318.3" font-family="Times,serif" font-size="14.00" fill="#000000">Database</text>
</g>
<!-- gameservices&#45;&gt;database__Database -->
<g id="edge24" class="edge">
<title>gameservices&#45;&gt;database__Database</title>
<path fill="none" stroke="#000000" d="M1554.2684,-448.6302C1528.1918,-423.0859 1479.3959,-375.2858 1449.7864,-346.2805"/>
<polygon fill="#000000" stroke="#000000" points="1451.9309,-343.4818 1442.338,-338.9842 1447.0324,-348.4823 1451.9309,-343.4818"/>
</g>
<!-- database__Database____init__ -->
<g id="node18" class="node">
<title>database__Database____init__</title>
<ellipse fill="#ffffff" fill-opacity="0.698039" stroke="#000000" cx="1660" cy="-322" rx="40.8928" ry="18"/>
<text text-anchor="middle" x="1660" y="-318.3" font-family="Times,serif" font-size="14.00" fill="#000000">__init__</text>
</g>
<!-- gameservices&#45;&gt;database__Database____init__ -->
<g id="edge22" class="edge">
<title>gameservices&#45;&gt;database__Database____init__</title>
<path fill="none" stroke="#000000" d="M1582.9673,-448.0535C1598.2668,-423.0179 1626.1233,-377.4347 1643.8134,-348.4872"/>
<polygon fill="#000000" stroke="#000000" points="1646.9428,-350.0783 1649.1709,-339.7204 1640.9699,-346.4281 1646.9428,-350.0783"/>
</g>
<!-- genetic&#45;&gt;database -->
<g id="edge2" class="edge">
<title>genetic&#45;&gt;database</title>
<path fill="none" stroke="#000000" d="M1537.1454,-304.0535C1527.7175,-279.3696 1510.6605,-234.7111 1499.5862,-205.7167"/>
<polygon fill="#000000" stroke="#000000" points="1502.7787,-204.2657 1495.941,-196.1727 1496.2394,-206.7633 1502.7787,-204.2657"/>
</g>
<!-- genetic&#45;&gt;net -->
<g id="edge1" class="edge">
<title>genetic&#45;&gt;net</title>
<path fill="none" stroke="#000000" d="M1548.2374,-304.0535C1554.0401,-279.4774 1564.5179,-235.1008 1571.3659,-206.0974"/>
<polygon fill="#000000" stroke="#000000" points="1574.8176,-206.7094 1573.7092,-196.1727 1568.0049,-205.1008 1574.8176,-206.7094"/>
</g>
<!-- app__AiRequest -->
<g id="node7" class="node">
<title>app__AiRequest</title>
<ellipse fill="#ffffff" fill-opacity="0.698039" stroke="#000000" cx="1580" cy="-610" rx="49.2915" ry="18"/>
<text text-anchor="middle" x="1580" y="-606.3" font-family="Times,serif" font-size="14.00" fill="#000000">AiRequest</text>
</g>
<!-- app__ApplyRequest -->
<g id="node8" class="node">
<title>app__ApplyRequest</title>
<ellipse fill="#ffffff" fill-opacity="0.698039" stroke="#000000" cx="1276" cy="-610" rx="63.0888" ry="18"/>
<text text-anchor="middle" x="1276" y="-606.3" font-family="Times,serif" font-size="14.00" fill="#000000">ApplyRequest</text>
</g>
<!-- gameservices__apply_request -->
<g id="node27" class="node">
<title>gameservices__apply_request</title>
<ellipse fill="#ffffff" fill-opacity="0.698039" stroke="#000000" cx="998" cy="-466" rx="61.99" ry="18"/>
<text text-anchor="middle" x="998" y="-462.3" font-family="Times,serif" font-size="14.00" fill="#000000">apply_request</text>
</g>
<!-- app__ApplyRequest&#45;&gt;gameservices__apply_request -->
<g id="edge16" class="edge">
<title>app__ApplyRequest&#45;&gt;gameservices__apply_request</title>
<path fill="none" stroke="#000000" d="M1245.4539,-594.1776C1194.8156,-567.9476 1093.5243,-515.4802 1037.5134,-486.4674"/>
<polygon fill="#000000" stroke="#000000" points="1039.0859,-483.3403 1028.5966,-481.8486 1035.8663,-489.5559 1039.0859,-483.3403"/>
</g>
<!-- app__FinishGenRequest -->
<g id="node9" class="node">
<title>app__FinishGenRequest</title>
<ellipse fill="#ffffff" fill-opacity="0.698039" stroke="#000000" cx="1435" cy="-610" rx="77.9862" ry="18"/>
<text text-anchor="middle" x="1435" y="-606.3" font-family="Times,serif" font-size="14.00" fill="#000000">FinishGenRequest</text>
</g>
<!-- gameservices__finish_gen_request -->
<g id="node28" class="node">
<title>gameservices__finish_gen_request</title>
<ellipse fill="#ffffff" fill-opacity="0.698039" stroke="#000000" cx="1359" cy="-466" rx="79.0865" ry="18"/>
<text text-anchor="middle" x="1359" y="-462.3" font-family="Times,serif" font-size="14.00" fill="#000000">finish_gen_request</text>
</g>
<!-- app__FinishGenRequest&#45;&gt;gameservices__finish_gen_request -->
<g id="edge19" class="edge">
<title>app__FinishGenRequest&#45;&gt;gameservices__finish_gen_request</title>
<path fill="none" stroke="#000000" d="M1425.5282,-592.0535C1412.4437,-567.2618 1388.7248,-522.3207 1373.4283,-493.3378"/>
<polygon fill="#000000" stroke="#000000" points="1376.3541,-491.3829 1368.5912,-484.1727 1370.1634,-494.6502 1376.3541,-491.3829"/>
</g>
<!-- app__IndexRequest -->
<g id="node10" class="node">
<title>app__IndexRequest</title>
<ellipse fill="#ffffff" fill-opacity="0.698039" stroke="#000000" cx="1135" cy="-610" rx="60.3893" ry="18"/>
<text text-anchor="middle" x="1135" y="-606.3" font-family="Times,serif" font-size="14.00" fill="#000000">IndexRequest</text>
</g>
<!-- app__JumpBirdRequest -->
<g id="node11" class="node">
<title>app__JumpBirdRequest</title>
<ellipse fill="#ffffff" fill-opacity="0.698039" stroke="#000000" cx="981" cy="-610" rx="76.0865" ry="18"/>
<text text-anchor="middle" x="981" y="-606.3" font-family="Times,serif" font-size="14.00" fill="#000000">JumpBirdRequest</text>
</g>
<!-- gameservices__jump_bird_request -->
<g id="node29" class="node">
<title>gameservices__jump_bird_request</title>
<ellipse fill="#ffffff" fill-opacity="0.698039" stroke="#000000" cx="839" cy="-466" rx="79.0865" ry="18"/>
<text text-anchor="middle" x="839" y="-462.3" font-family="Times,serif" font-size="14.00" fill="#000000">jump_bird_request</text>
</g>
<!-- app__JumpBirdRequest&#45;&gt;gameservices__jump_bird_request -->
<g id="edge20" class="edge">
<title>app__JumpBirdRequest&#45;&gt;gameservices__jump_bird_request</title>
<path fill="none" stroke="#000000" d="M963.588,-592.3428C938.57,-566.9724 892.3293,-520.0804 863.7618,-491.1105"/>
<polygon fill="#000000" stroke="#000000" points="866.068,-488.4645 856.5544,-483.8017 861.0838,-493.3795 866.068,-488.4645"/>
</g>
<!-- app__SingleRequest -->
<g id="node12" class="node">
<title>app__SingleRequest</title>
<ellipse fill="#ffffff" fill-opacity="0.698039" stroke="#000000" cx="824" cy="-610" rx="63.0888" ry="18"/>
<text text-anchor="middle" x="824" y="-606.3" font-family="Times,serif" font-size="14.00" fill="#000000">SingleRequest</text>
</g>
<!-- app__StartGenRequest -->
<g id="node13" class="node">
<title>app__StartGenRequest</title>
<ellipse fill="#ffffff" fill-opacity="0.698039" stroke="#000000" cx="671" cy="-610" rx="72.2875" ry="18"/>
<text text-anchor="middle" x="671" y="-606.3" font-family="Times,serif" font-size="14.00" fill="#000000">StartGenRequest</text>
</g>
<!-- gameservices__start_gen_request -->
<g id="node30" class="node">
<title>gameservices__start_gen_request</title>
<ellipse fill="#ffffff" fill-opacity="0.698039" stroke="#000000" cx="645" cy="-466" rx="74.9875" ry="18"/>
<text text-anchor="middle" x="645" y="-462.3" font-family="Times,serif" font-size="14.00" fill="#000000">start_gen_request</text>
</g>
<!-- app__StartGenRequest&#45;&gt;gameservices__start_gen_request -->
<g id="edge18" class="edge">
<title>app__StartGenRequest&#45;&gt;gameservices__start_gen_request</title>
<path fill="none" stroke="#000000" d="M667.7071,-591.7623C663.2529,-567.0928 655.2663,-522.8598 650.0507,-493.9731"/>
<polygon fill="#000000" stroke="#000000" points="653.4874,-493.3086 648.2662,-484.0896 646.5988,-494.5524 653.4874,-493.3086"/>
</g>
<!-- app__StartRequest -->
<g id="node14" class="node">
<title>app__StartRequest</title>
<ellipse fill="#ffffff" fill-opacity="0.698039" stroke="#000000" cx="524" cy="-610" rx="57.3905" ry="18"/>
<text text-anchor="middle" x="524" y="-606.3" font-family="Times,serif" font-size="14.00" fill="#000000">StartRequest</text>
</g>
<!-- gameservices__start_request -->
<g id="node31" class="node">
<title>gameservices__start_request</title>
<ellipse fill="#ffffff" fill-opacity="0.698039" stroke="#000000" cx="483" cy="-466" rx="57.3905" ry="18"/>
<text text-anchor="middle" x="483" y="-462.3" font-family="Times,serif" font-size="14.00" fill="#000000">start_request</text>
</g>
<!-- app__StartRequest&#45;&gt;gameservices__start_request -->
<g id="edge17" class="edge">
<title>app__StartRequest&#45;&gt;gameservices__start_request</title>
<path fill="none" stroke="#000000" d="M518.8902,-592.0535C511.8929,-567.4774 499.2579,-523.1008 491,-494.0974"/>
<polygon fill="#000000" stroke="#000000" points="494.2789,-492.832 488.1742,-484.1727 487.5464,-494.7489 494.2789,-492.832"/>
</g>
<!-- config__config -->
<g id="node15" class="node">
<title>config__config</title>
<ellipse fill="#ffffff" fill-opacity="0.698039" stroke="#000000" cx="1660" cy="-178" rx="33.5952" ry="18"/>
<text text-anchor="middle" x="1660" y="-174.3" font-family="Times,serif" font-size="14.00" fill="#000000">config</text>
</g>
<!-- database__Database____del__ -->
<g id="node17" class="node">
<title>database__Database____del__</title>
<ellipse fill="#ffffff" fill-opacity="0.698039" stroke="#000000" cx="409" cy="-610" rx="40.0939" ry="18"/>
<text text-anchor="middle" x="409" y="-606.3" font-family="Times,serif" font-size="14.00" fill="#000000">__del__</text>
</g>
<!-- database__Database____init__&#45;&gt;config__config -->
<g id="edge12" class="edge">
<title>database__Database____init__&#45;&gt;config__config</title>
<path fill="none" stroke="#000000" d="M1660,-303.7623C1660,-279.201 1660,-235.2474 1660,-206.3541"/>
<polygon fill="#000000" stroke="#000000" points="1663.5001,-206.0896 1660,-196.0896 1656.5001,-206.0897 1663.5001,-206.0896"/>
</g>
<!-- database__Database__create_tables -->
<g id="node19" class="node">
<title>database__Database__create_tables</title>
<ellipse fill="#ffffff" fill-opacity="0.698039" stroke="#000000" cx="998" cy="-322" rx="58.4896" ry="18"/>
<text text-anchor="middle" x="998" y="-318.3" font-family="Times,serif" font-size="14.00" fill="#000000">create_tables</text>
</g>
<!-- database__Database__insert_bird -->
<g id="node20" class="node">
<title>database__Database__insert_bird</title>
<ellipse fill="#ffffff" fill-opacity="0.698039" stroke="#000000" cx="472" cy="-322" rx="50.0912" ry="18"/>
<text text-anchor="middle" x="472" y="-318.3" font-family="Times,serif" font-size="14.00" fill="#000000">insert_bird</text>
</g>
<!-- database__Database__insert_cycle -->
<g id="node21" class="node">
<title>database__Database__insert_cycle</title>
<ellipse fill="#ffffff" fill-opacity="0.698039" stroke="#000000" cx="714" cy="-322" rx="54.6905" ry="18"/>
<text text-anchor="middle" x="714" y="-318.3" font-family="Times,serif" font-size="14.00" fill="#000000">insert_cycle</text>
</g>
<!-- database__Database__insert_fitness -->
<g id="node22" class="node">
<title>database__Database__insert_fitness</title>
<ellipse fill="#ffffff" fill-opacity="0.698039" stroke="#000000" cx="1304" cy="-322" rx="58.4896" ry="18"/>
<text text-anchor="middle" x="1304" y="-318.3" font-family="Times,serif" font-size="14.00" fill="#000000">insert_fitness</text>
</g>
<!-- database__Database__select_bird -->
<g id="node23" class="node">
<title>database__Database__select_bird</title>
<ellipse fill="#ffffff" fill-opacity="0.698039" stroke="#000000" cx="591" cy="-322" rx="50.8918" ry="18"/>
<text text-anchor="middle" x="591" y="-318.3" font-family="Times,serif" font-size="14.00" fill="#000000">select_bird</text>
</g>
<!-- database__Database__select_fitness -->
<g id="node24" class="node">
<title>database__Database__select_fitness</title>
<ellipse fill="#ffffff" fill-opacity="0.698039" stroke="#000000" cx="292" cy="-610" rx="59.2899" ry="18"/>
<text text-anchor="middle" x="292" y="-606.3" font-family="Times,serif" font-size="14.00" fill="#000000">select_fitness</text>
</g>
<!-- database__Database__select_game_id -->
<g id="node25" class="node">
<title>database__Database__select_game_id</title>
<ellipse fill="#ffffff" fill-opacity="0.698039" stroke="#000000" cx="854" cy="-322" rx="67.6881" ry="18"/>
<text text-anchor="middle" x="854" y="-318.3" font-family="Times,serif" font-size="14.00" fill="#000000">select_game_id</text>
</g>
<!-- database__Database__update_net -->
<g id="node26" class="node">
<title>database__Database__update_net</title>
<ellipse fill="#ffffff" fill-opacity="0.698039" stroke="#000000" cx="164" cy="-610" rx="50.8918" ry="18"/>
<text text-anchor="middle" x="164" y="-606.3" font-family="Times,serif" font-size="14.00" fill="#000000">update_net</text>
</g>
<!-- gameservices__apply_request&#45;&gt;database__Database__create_tables -->
<g id="edge28" class="edge">
<title>gameservices__apply_request&#45;&gt;database__Database__create_tables</title>
<path fill="none" stroke="#000000" d="M998,-447.7623C998,-423.201 998,-379.2474 998,-350.3541"/>
<polygon fill="#000000" stroke="#000000" points="1001.5001,-350.0896 998,-340.0896 994.5001,-350.0897 1001.5001,-350.0896"/>
</g>
<!-- gameservices__apply_request&#45;&gt;database__Database__insert_cycle -->
<g id="edge27" class="edge">
<title>gameservices__apply_request&#45;&gt;database__Database__insert_cycle</title>
<path fill="none" stroke="#000000" d="M967.0664,-450.3154C915.045,-423.9383 810.1506,-370.7524 753.1034,-341.8271"/>
<polygon fill="#000000" stroke="#000000" points="754.54,-338.6313 744.0382,-337.2306 751.3744,-344.8747 754.54,-338.6313"/>
</g>
<!-- gameservices__apply_request&#45;&gt;database__Database__select_game_id -->
<g id="edge26" class="edge">
<title>gameservices__apply_request&#45;&gt;database__Database__select_game_id</title>
<path fill="none" stroke="#000000" d="M980.6302,-448.6302C955.2232,-423.2232 907.7991,-375.7991 878.75,-346.75"/>
<polygon fill="#000000" stroke="#000000" points="880.9773,-344.0276 871.4314,-339.4314 876.0276,-348.9773 880.9773,-344.0276"/>
</g>
<!-- gameservices__finish_gen_request&#45;&gt;database__Database -->
<g id="edge34" class="edge">
<title>gameservices__finish_gen_request&#45;&gt;database__Database</title>
<path fill="none" stroke="#000000" d="M1367.2255,-448.0535C1378.6504,-423.1263 1399.4117,-377.8289 1412.6873,-348.8641"/>
<polygon fill="#000000" stroke="#000000" points="1415.8933,-350.2693 1416.8782,-339.7204 1409.5298,-347.3527 1415.8933,-350.2693"/>
</g>
<!-- gameservices__finish_gen_request&#45;&gt;database__Database__insert_fitness -->
<g id="edge33" class="edge">
<title>gameservices__finish_gen_request&#45;&gt;database__Database__insert_fitness</title>
<path fill="none" stroke="#000000" d="M1352.1454,-448.0535C1342.7175,-423.3696 1325.6605,-378.7111 1314.5862,-349.7167"/>
<polygon fill="#000000" stroke="#000000" points="1317.7787,-348.2657 1310.941,-340.1727 1311.2394,-350.7633 1317.7787,-348.2657"/>
</g>
<!-- genetic__genetic_algorithm -->
<g id="node33" class="node">
<title>genetic__genetic_algorithm</title>
<ellipse fill="#ffffff" fill-opacity="0.698039" stroke="#000000" cx="1151" cy="-322" rx="76.8869" ry="18"/>
<text text-anchor="middle" x="1151" y="-318.3" font-family="Times,serif" font-size="14.00" fill="#000000">genetic_algorithm</text>
</g>
<!-- gameservices__finish_gen_request&#45;&gt;genetic__genetic_algorithm -->
<g id="edge35" class="edge">
<title>gameservices__finish_gen_request&#45;&gt;genetic__genetic_algorithm</title>
<path fill="none" stroke="#000000" d="M1333.9103,-448.6302C1296.4857,-422.7209 1225.9889,-373.9154 1184.2929,-345.0489"/>
<polygon fill="#000000" stroke="#000000" points="1186.0691,-342.0217 1175.8549,-339.2072 1182.0846,-347.777 1186.0691,-342.0217"/>
</g>
<!-- gameservices__start_gen_request&#45;&gt;database__Database__select_bird -->
<g id="edge32" class="edge">
<title>gameservices__start_gen_request&#45;&gt;database__Database__select_bird</title>
<path fill="none" stroke="#000000" d="M638.27,-448.0535C629.0136,-423.3696 612.2667,-378.7111 601.3938,-349.7167"/>
<polygon fill="#000000" stroke="#000000" points="604.6032,-348.3071 597.8148,-340.1727 598.0489,-350.765 604.6032,-348.3071"/>
</g>
<!-- gameservices__start_request&#45;&gt;database__Database__insert_bird -->
<g id="edge29" class="edge">
<title>gameservices__start_request&#45;&gt;database__Database__insert_bird</title>
<path fill="none" stroke="#000000" d="M481.6068,-447.7623C479.7306,-423.201 476.3731,-379.2474 474.1659,-350.3541"/>
<polygon fill="#000000" stroke="#000000" points="477.6334,-349.794 473.3818,-340.0896 470.6538,-350.3272 477.6334,-349.794"/>
</g>
<!-- gameservices__start_request&#45;&gt;database__Database__insert_cycle -->
<g id="edge30" class="edge">
<title>gameservices__start_request&#45;&gt;database__Database__insert_cycle</title>
<path fill="none" stroke="#000000" d="M509.0496,-449.7613C550.9505,-423.6413 633.3203,-372.2938 679.8655,-343.2786"/>
<polygon fill="#000000" stroke="#000000" points="681.7635,-346.2199 688.3981,-337.9596 678.0604,-340.2796 681.7635,-346.2199"/>
</g>
<!-- net__generate_net -->
<g id="node40" class="node">
<title>net__generate_net</title>
<ellipse fill="#ffffff" fill-opacity="0.698039" stroke="#000000" cx="347" cy="-322" rx="57.3905" ry="18"/>
<text text-anchor="middle" x="347" y="-318.3" font-family="Times,serif" font-size="14.00" fill="#000000">generate_net</text>
</g>
<!-- gameservices__start_request&#45;&gt;net__generate_net -->
<g id="edge31" class="edge">
<title>gameservices__start_request&#45;&gt;net__generate_net</title>
<path fill="none" stroke="#000000" d="M466.5952,-448.6302C442.5997,-423.2232 397.8103,-375.7991 370.375,-346.75"/>
<polygon fill="#000000" stroke="#000000" points="372.8738,-344.2983 363.463,-339.4314 367.7847,-349.1047 372.8738,-344.2983"/>
</g>
<!-- genetic__crossover_method -->
<g id="node32" class="node">
<title>genetic__crossover_method</title>
<ellipse fill="#ffffff" fill-opacity="0.698039" stroke="#000000" cx="822" cy="-178" rx="77.1866" ry="18"/>
<text text-anchor="middle" x="822" y="-174.3" font-family="Times,serif" font-size="14.00" fill="#000000">crossover_method</text>
</g>
<!-- genetic__make_matrix -->
<g id="node34" class="node">
<title>genetic__make_matrix</title>
<ellipse fill="#ffffff" fill-opacity="0.698039" stroke="#000000" cx="832" cy="-34" rx="58.4896" ry="18"/>
<text text-anchor="middle" x="832" y="-30.3" font-family="Times,serif" font-size="14.00" fill="#000000">make_matrix</text>
</g>
<!-- genetic__crossover_method&#45;&gt;genetic__make_matrix -->
<g id="edge7" class="edge">
<title>genetic__crossover_method&#45;&gt;genetic__make_matrix</title>
<path fill="none" stroke="#000000" d="M823.2665,-159.7623C824.9721,-135.201 828.0245,-91.2474 830.031,-62.3541"/>
<polygon fill="#000000" stroke="#000000" points="833.5425,-62.3081 830.7438,-52.0896 826.5593,-61.8231 833.5425,-62.3081"/>
</g>
<!-- genetic__make_odict -->
<g id="node35" class="node">
<title>genetic__make_odict</title>
<ellipse fill="#ffffff" fill-opacity="0.698039" stroke="#000000" cx="972" cy="-34" rx="53.0913" ry="18"/>
<text text-anchor="middle" x="972" y="-30.3" font-family="Times,serif" font-size="14.00" fill="#000000">make_odict</text>
</g>
<!-- genetic__crossover_method&#45;&gt;genetic__make_odict -->
<g id="edge8" class="edge">
<title>genetic__crossover_method&#45;&gt;genetic__make_odict</title>
<path fill="none" stroke="#000000" d="M840.3929,-160.3428C866.964,-134.8345 916.1979,-87.5701 946.3335,-58.6398"/>
<polygon fill="#000000" stroke="#000000" points="949.1351,-60.8021 953.9251,-51.3519 944.2874,-55.7523 949.1351,-60.8021"/>
</g>
<!-- genetic__genetic_algorithm&#45;&gt;genetic__crossover_method -->
<g id="edge5" class="edge">
<title>genetic__genetic_algorithm&#45;&gt;genetic__crossover_method</title>
<path fill="none" stroke="#000000" d="M1114.5342,-306.0393C1054.1783,-279.6221 933.6426,-226.8648 867.6978,-198.0015"/>
<polygon fill="#000000" stroke="#000000" points="868.9424,-194.7257 858.3781,-193.9223 866.1356,-201.1384 868.9424,-194.7257"/>
</g>
<!-- genetic__mutation_method -->
<g id="node36" class="node">
<title>genetic__mutation_method</title>
<ellipse fill="#ffffff" fill-opacity="0.698039" stroke="#000000" cx="992" cy="-178" rx="74.9875" ry="18"/>
<text text-anchor="middle" x="992" y="-174.3" font-family="Times,serif" font-size="14.00" fill="#000000">mutation_method</text>
</g>
<!-- genetic__genetic_algorithm&#45;&gt;genetic__mutation_method -->
<g id="edge6" class="edge">
<title>genetic__genetic_algorithm&#45;&gt;genetic__mutation_method</title>
<path fill="none" stroke="#000000" d="M1131.5035,-304.3428C1103.3712,-278.8645 1051.2727,-231.6809 1019.3189,-202.7417"/>
<polygon fill="#000000" stroke="#000000" points="1021.4176,-199.9203 1011.656,-195.8017 1016.7186,-205.1087 1021.4176,-199.9203"/>
</g>
<!-- genetic__reinsertion_method -->
<g id="node37" class="node">
<title>genetic__reinsertion_method</title>
<ellipse fill="#ffffff" fill-opacity="0.698039" stroke="#000000" cx="1166" cy="-178" rx="81.4863" ry="18"/>
<text text-anchor="middle" x="1166" y="-174.3" font-family="Times,serif" font-size="14.00" fill="#000000">reinsertion_method</text>
</g>
<!-- genetic__genetic_algorithm&#45;&gt;genetic__reinsertion_method -->
<g id="edge3" class="edge">
<title>genetic__genetic_algorithm&#45;&gt;genetic__reinsertion_method</title>
<path fill="none" stroke="#000000" d="M1152.8998,-303.7623C1155.4582,-279.201 1160.0367,-235.2474 1163.0465,-206.3541"/>
<polygon fill="#000000" stroke="#000000" points="1166.5607,-206.3985 1164.1157,-196.0896 1159.5984,-205.6731 1166.5607,-206.3985"/>
</g>
<!-- genetic__selection_method -->
<g id="node38" class="node">
<title>genetic__selection_method</title>
<ellipse fill="#ffffff" fill-opacity="0.698039" stroke="#000000" cx="1340" cy="-178" rx="74.9875" ry="18"/>
<text text-anchor="middle" x="1340" y="-174.3" font-family="Times,serif" font-size="14.00" fill="#000000">selection_method</text>
</g>
<!-- genetic__genetic_algorithm&#45;&gt;genetic__selection_method -->
<g id="edge4" class="edge">
<title>genetic__genetic_algorithm&#45;&gt;genetic__selection_method</title>
<path fill="none" stroke="#000000" d="M1173.7978,-304.6302C1207.6615,-278.8293 1271.3255,-230.3234 1309.2713,-201.4123"/>
<polygon fill="#000000" stroke="#000000" points="1311.5824,-204.0517 1317.4155,-195.2072 1307.34,-198.4837 1311.5824,-204.0517"/>
</g>
<!-- genetic__mutation_method&#45;&gt;genetic__make_matrix -->
<g id="edge9" class="edge">
<title>genetic__mutation_method&#45;&gt;genetic__make_matrix</title>
<path fill="none" stroke="#000000" d="M972.3809,-160.3428C943.9178,-134.726 891.0749,-87.1674 858.9683,-58.2715"/>
<polygon fill="#000000" stroke="#000000" points="861.0542,-55.44 851.2798,-51.3519 856.3714,-60.6431 861.0542,-55.44"/>
</g>
<!-- genetic__mutation_method&#45;&gt;genetic__make_odict -->
<g id="edge10" class="edge">
<title>genetic__mutation_method&#45;&gt;genetic__make_odict</title>
<path fill="none" stroke="#000000" d="M989.467,-159.7623C986.0557,-135.201 979.951,-91.2474 975.9381,-62.3541"/>
<polygon fill="#000000" stroke="#000000" points="979.3549,-61.513 974.5124,-52.0896 972.4215,-62.4761 979.3549,-61.513"/>
</g>
<!-- net__Net -->
<g id="node39" class="node">
<title>net__Net</title>
<ellipse fill="#ffffff" fill-opacity="0.698039" stroke="#000000" cx="304" cy="-178" rx="27" ry="18"/>
<text text-anchor="middle" x="304" y="-174.3" font-family="Times,serif" font-size="14.00" fill="#000000">Net</text>
</g>
<!-- net__generate_net&#45;&gt;net__Net -->
<g id="edge14" class="edge">
<title>net__generate_net&#45;&gt;net__Net</title>
<path fill="none" stroke="#000000" d="M341.641,-304.0535C334.2622,-279.3431 320.9059,-234.6152 312.2486,-205.6234"/>
<polygon fill="#000000" stroke="#000000" points="315.5065,-204.3008 309.2915,-195.7204 308.7992,-206.3037 315.5065,-204.3008"/>
</g>
<!-- net__Net____init__ -->
<g id="node41" class="node">
<title>net__Net____init__</title>
<ellipse fill="#ffffff" fill-opacity="0.698039" stroke="#000000" cx="390" cy="-178" rx="40.8928" ry="18"/>
<text text-anchor="middle" x="390" y="-174.3" font-family="Times,serif" font-size="14.00" fill="#000000">__init__</text>
</g>
<!-- net__generate_net&#45;&gt;net__Net____init__ -->
<g id="edge13" class="edge">
<title>net__generate_net&#45;&gt;net__Net____init__</title>
<path fill="none" stroke="#000000" d="M352.359,-304.0535C359.6977,-279.4774 372.9491,-235.1008 381.6098,-206.0974"/>
<polygon fill="#000000" stroke="#000000" points="385.0658,-206.7561 384.5734,-196.1727 378.3584,-204.7532 385.0658,-206.7561"/>
</g>
<!-- net__Net__forward -->
<g id="node42" class="node">
<title>net__Net__forward</title>
<ellipse fill="#ffffff" fill-opacity="0.698039" stroke="#000000" cx="56" cy="-610" rx="39.7935" ry="18"/>
<text text-anchor="middle" x="56" y="-606.3" font-family="Times,serif" font-size="14.00" fill="#000000">forward</text>
</g>
</g>
</svg>
