<?xml version="1.0" encoding="UTF-8" standalone="no"?>
<!DOCTYPE svg PUBLIC "-//W3C//DTD SVG 1.1//EN"
 "http://www.w3.org/Graphics/SVG/1.1/DTD/svg11.dtd">
<!-- Generated by graphviz version 2.40.1 (20161225.0304)
 -->
<!-- Title: G Pages: 1 -->
<svg width="2552pt" height="691pt"
 viewBox="0.00 0.00 2552.00 691.00" xmlns="http://www.w3.org/2000/svg" xmlns:xlink="http://www.w3.org/1999/xlink">
<g id="graph0" class="graph" transform="scale(1 1) rotate(0) translate(4 687)">
<title>G</title>
<polygon fill="#ffffff" stroke="transparent" points="-4,4 -4,-687 2548,-687 2548,4 -4,4"/>
<g id="clust1" class="cluster">
<title>cluster_G</title>
<path fill="#808080" fill-opacity="0.094118" stroke="#000000" d="M20,-8C20,-8 2524,-8 2524,-8 2530,-8 2536,-14 2536,-20 2536,-20 2536,-663 2536,-663 2536,-669 2530,-675 2524,-675 2524,-675 20,-675 20,-675 14,-675 8,-669 8,-663 8,-663 8,-20 8,-20 8,-14 14,-8 20,-8"/>
</g>
<g id="clust2" class="cluster">
<title>cluster_app</title>
<path fill="#808080" fill-opacity="0.094118" stroke="#000000" d="M419,-592C419,-592 1574,-592 1574,-592 1580,-592 1586,-598 1586,-604 1586,-604 1586,-655 1586,-655 1586,-661 1580,-667 1574,-667 1574,-667 419,-667 419,-667 413,-667 407,-661 407,-655 407,-655 407,-604 407,-604 407,-598 413,-592 419,-592"/>
<text text-anchor="middle" x="996.5" y="-651.8" font-family="Times,serif" font-size="14.00" fill="#000000">app</text>
</g>
<g id="clust3" class="cluster">
<title>cluster_config</title>
<path fill="#808080" fill-opacity="0.094118" stroke="#000000" d="M391,-160C391,-160 451,-160 451,-160 457,-160 463,-166 463,-172 463,-172 463,-223 463,-223 463,-229 457,-235 451,-235 451,-235 391,-235 391,-235 385,-235 379,-229 379,-223 379,-223 379,-172 379,-172 379,-166 385,-160 391,-160"/>
<text text-anchor="middle" x="421" y="-219.8" font-family="Times,serif" font-size="14.00" fill="#000000">config</text>
</g>
<g id="clust4" class="cluster">
<title>cluster_database</title>
<path fill="#808080" fill-opacity="0.094118" stroke="#000000" d="M152,-304C152,-304 232,-304 232,-304 238,-304 244,-310 244,-316 244,-316 244,-367 244,-367 244,-373 238,-379 232,-379 232,-379 152,-379 152,-379 146,-379 140,-373 140,-367 140,-367 140,-316 140,-316 140,-310 146,-304 152,-304"/>
<text text-anchor="middle" x="192" y="-363.8" font-family="Times,serif" font-size="14.00" fill="#000000">database</text>
</g>
<g id="clust5" class="cluster">
<title>cluster_database__Database</title>
<path fill="#808080" fill-opacity="0.094118" stroke="#000000" d="M264,-304C264,-304 1480,-304 1480,-304 1486,-304 1492,-310 1492,-316 1492,-316 1492,-367 1492,-367 1492,-373 1486,-379 1480,-379 1480,-379 264,-379 264,-379 258,-379 252,-373 252,-367 252,-367 252,-316 252,-316 252,-310 258,-304 264,-304"/>
<text text-anchor="middle" x="872" y="-363.8" font-family="Times,serif" font-size="14.00" fill="#000000">database.Database</text>
</g>
<g id="clust6" class="cluster">
<title>cluster_gameservices</title>
<path fill="#808080" fill-opacity="0.094118" stroke="#000000" d="M549,-448C549,-448 1318,-448 1318,-448 1324,-448 1330,-454 1330,-460 1330,-460 1330,-511 1330,-511 1330,-517 1324,-523 1318,-523 1318,-523 549,-523 549,-523 543,-523 537,-517 537,-511 537,-511 537,-460 537,-460 537,-454 543,-448 549,-448"/>
<text text-anchor="middle" x="933.5" y="-507.8" font-family="Times,serif" font-size="14.00" fill="#000000">gameservices</text>
</g>
<g id="clust7" class="cluster">
<title>cluster_genetic</title>
<path fill="#808080" fill-opacity="0.094118" stroke="#000000" d="M1512,-16C1512,-16 2174,-16 2174,-16 2180,-16 2186,-22 2186,-28 2186,-28 2186,-367 2186,-367 2186,-373 2180,-379 2174,-379 2174,-379 1512,-379 1512,-379 1506,-379 1500,-373 1500,-367 1500,-367 1500,-28 1500,-28 1500,-22 1506,-16 1512,-16"/>
<text text-anchor="middle" x="1843" y="-363.8" font-family="Times,serif" font-size="14.00" fill="#000000">genetic</text>
</g>
<g id="clust8" class="cluster">
<title>cluster_net</title>
<path fill="#808080" fill-opacity="0.094118" stroke="#000000" d="M2410,-160C2410,-160 2516,-160 2516,-160 2522,-160 2528,-166 2528,-172 2528,-172 2528,-367 2528,-367 2528,-373 2522,-379 2516,-379 2516,-379 2410,-379 2410,-379 2404,-379 2398,-373 2398,-367 2398,-367 2398,-172 2398,-172 2398,-166 2404,-160 2410,-160"/>
<text text-anchor="middle" x="2463" y="-363.8" font-family="Times,serif" font-size="14.00" fill="#000000">net</text>
</g>
<g id="clust9" class="cluster">
<title>cluster_net__Net</title>
<path fill="#808080" fill-opacity="0.094118" stroke="#000000" d="M2206,-160C2206,-160 2378,-160 2378,-160 2384,-160 2390,-166 2390,-172 2390,-172 2390,-223 2390,-223 2390,-229 2384,-235 2378,-235 2378,-235 2206,-235 2206,-235 2200,-235 2194,-229 2194,-223 2194,-223 2194,-172 2194,-172 2194,-166 2200,-160 2206,-160"/>
<text text-anchor="middle" x="2292" y="-219.8" font-family="Times,serif" font-size="14.00" fill="#000000">net.Net</text>
</g>
<!-- app -->
<g id="node1" class="node">
<title>app</title>
<ellipse fill="#ffffff" fill-opacity="0.698039" stroke="#000000" cx="129" cy="-618" rx="27" ry="18"/>
<text text-anchor="middle" x="129" y="-614.3" font-family="Times,serif" font-size="14.00" fill="#000000">app</text>
</g>
<!-- gameservices -->
<g id="node4" class="node">
<title>gameservices</title>
<ellipse fill="#ffffff" fill-opacity="0.698039" stroke="#000000" cx="129" cy="-474" rx="59.5901" ry="18"/>
<text text-anchor="middle" x="129" y="-470.3" font-family="Times,serif" font-size="14.00" fill="#000000">gameservices</text>
</g>
<!-- app&#45;&gt;gameservices -->
<g id="edge15" class="edge">
<title>app&#45;&gt;gameservices</title>
<path fill="none" stroke="#000000" d="M129,-599.7623C129,-575.201 129,-531.2474 129,-502.3541"/>
<polygon fill="#000000" stroke="#000000" points="132.5001,-502.0896 129,-492.0896 125.5001,-502.0897 132.5001,-502.0896"/>
</g>
<!-- config -->
<g id="node2" class="node">
<title>config</title>
<ellipse fill="#ffffff" fill-opacity="0.698039" stroke="#000000" cx="58" cy="-42" rx="33.5952" ry="18"/>
<text text-anchor="middle" x="58" y="-38.3" font-family="Times,serif" font-size="14.00" fill="#000000">config</text>
</g>
<!-- database -->
<g id="node3" class="node">
<title>database</title>
<ellipse fill="#ffffff" fill-opacity="0.698039" stroke="#000000" cx="58" cy="-186" rx="42.4939" ry="18"/>
<text text-anchor="middle" x="58" y="-182.3" font-family="Times,serif" font-size="14.00" fill="#000000">database</text>
</g>
<!-- database&#45;&gt;config -->
<g id="edge11" class="edge">
<title>database&#45;&gt;config</title>
<path fill="none" stroke="#000000" d="M58,-167.7623C58,-143.201 58,-99.2474 58,-70.3541"/>
<polygon fill="#000000" stroke="#000000" points="61.5001,-70.0896 58,-60.0896 54.5001,-70.0897 61.5001,-70.0896"/>
</g>
<!-- gameservices&#45;&gt;database -->
<g id="edge25" class="edge">
<title>gameservices&#45;&gt;database</title>
<path fill="none" stroke="#000000" d="M101.3631,-457.6829C76.645,-441.3203 42.0637,-413.6152 27,-379 2.8221,-323.4411 27.4487,-251.5005 44.5639,-213.0539"/>
<polygon fill="#000000" stroke="#000000" points="47.9213,-214.1314 48.9322,-203.5849 41.565,-211.1991 47.9213,-214.1314"/>
</g>
<!-- genetic -->
<g id="node5" class="node">
<title>genetic</title>
<ellipse fill="#ffffff" fill-opacity="0.698039" stroke="#000000" cx="73" cy="-330" rx="37.0935" ry="18"/>
<text text-anchor="middle" x="73" y="-326.3" font-family="Times,serif" font-size="14.00" fill="#000000">genetic</text>
</g>
<!-- gameservices&#45;&gt;genetic -->
<g id="edge21" class="edge">
<title>gameservices&#45;&gt;genetic</title>
<path fill="none" stroke="#000000" d="M122.0208,-456.0535C112.369,-431.2347 94.8643,-386.2224 83.5944,-357.2428"/>
<polygon fill="#000000" stroke="#000000" points="86.7778,-355.7718 79.8912,-347.7204 80.2538,-358.309 86.7778,-355.7718"/>
</g>
<!-- net -->
<g id="node6" class="node">
<title>net</title>
<ellipse fill="#ffffff" fill-opacity="0.698039" stroke="#000000" cx="145" cy="-186" rx="27" ry="18"/>
<text text-anchor="middle" x="145" y="-182.3" font-family="Times,serif" font-size="14.00" fill="#000000">net</text>
</g>
<!-- gameservices&#45;&gt;net -->
<g id="edge23" class="edge">
<title>gameservices&#45;&gt;net</title>
<path fill="none" stroke="#000000" d="M129.5382,-455.8748C130.5079,-424.784 132.7541,-359.2902 136,-304 137.8064,-273.2297 140.5865,-237.9993 142.5786,-214.1036"/>
<polygon fill="#000000" stroke="#000000" points="146.0797,-214.2376 143.4322,-203.9789 139.1044,-213.6495 146.0797,-214.2376"/>
</g>
<!-- database__Database -->
<g id="node16" class="node">
<title>database__Database</title>
<ellipse fill="#dafecc" fill-opacity="0.698039" stroke="#000000" cx="192" cy="-330" rx="44.393" ry="18"/>
<text text-anchor="middle" x="192" y="-326.3" font-family="Times,serif" font-size="14.00" fill="#000000">Database</text>
</g>
<!-- gameservices&#45;&gt;database__Database -->
<g id="edge24" class="edge">
<title>gameservices&#45;&gt;database__Database</title>
<path fill="none" stroke="#000000" d="M136.8516,-456.0535C147.698,-431.2618 167.3597,-386.3207 180.0397,-357.3378"/>
<polygon fill="#000000" stroke="#000000" points="183.2477,-358.7372 184.0494,-348.1727 176.8346,-355.9314 183.2477,-358.7372"/>
</g>
<!-- database__Database____init__ -->
<g id="node18" class="node">
<title>database__Database____init__</title>
<ellipse fill="#b6ff99" fill-opacity="0.698039" stroke="#000000" cx="421" cy="-330" rx="40.8928" ry="18"/>
<text text-anchor="middle" x="421" y="-326.3" font-family="Times,serif" font-size="14.00" fill="#000000">__init__</text>
</g>
<!-- gameservices&#45;&gt;database__Database____init__ -->
<g id="edge22" class="edge">
<title>gameservices&#45;&gt;database__Database____init__</title>
<path fill="none" stroke="#000000" d="M174.3817,-462.132C225.0273,-447.5809 308.1112,-419.7269 371,-379 381.4152,-372.2551 391.4754,-363.0968 399.8072,-354.5228"/>
<polygon fill="#000000" stroke="#000000" points="402.3705,-356.906 406.6497,-347.2138 397.2604,-352.122 402.3705,-356.906"/>
</g>
<!-- genetic&#45;&gt;database -->
<g id="edge2" class="edge">
<title>genetic&#45;&gt;database</title>
<path fill="none" stroke="#000000" d="M71.1002,-311.7623C68.5418,-287.201 63.9633,-243.2474 60.9535,-214.3541"/>
<polygon fill="#000000" stroke="#000000" points="64.4016,-213.6731 59.8843,-204.0896 57.4393,-214.3985 64.4016,-213.6731"/>
</g>
<!-- genetic&#45;&gt;net -->
<g id="edge1" class="edge">
<title>genetic&#45;&gt;net</title>
<path fill="none" stroke="#000000" d="M81.8286,-312.3428C94.3114,-287.3773 117.2143,-241.5715 131.7445,-212.5109"/>
<polygon fill="#000000" stroke="#000000" points="134.9824,-213.8614 136.3241,-203.3519 128.7214,-210.7309 134.9824,-213.8614"/>
</g>
<!-- app__AiRequest -->
<g id="node7" class="node">
<title>app__AiRequest</title>
<ellipse fill="#fecccc" fill-opacity="0.698039" stroke="#000000" cx="1529" cy="-618" rx="49.2915" ry="18"/>
<text text-anchor="middle" x="1529" y="-614.3" font-family="Times,serif" font-size="14.00" fill="#000000">AiRequest</text>
</g>
<!-- app__ApplyRequest -->
<g id="node8" class="node">
<title>app__ApplyRequest</title>
<ellipse fill="#fecccc" fill-opacity="0.698039" stroke="#000000" cx="1266" cy="-618" rx="63.0888" ry="18"/>
<text text-anchor="middle" x="1266" y="-614.3" font-family="Times,serif" font-size="14.00" fill="#000000">ApplyRequest</text>
</g>
<!-- gameservices__apply_request -->
<g id="node27" class="node">
<title>gameservices__apply_request</title>
<ellipse fill="#ccfee9" fill-opacity="0.698039" stroke="#000000" cx="1128" cy="-474" rx="61.99" ry="18"/>
<text text-anchor="middle" x="1128" y="-470.3" font-family="Times,serif" font-size="14.00" fill="#000000">apply_request</text>
</g>
<!-- app__ApplyRequest&#45;&gt;gameservices__apply_request -->
<g id="edge16" class="edge">
<title>app__ApplyRequest&#45;&gt;gameservices__apply_request</title>
<path fill="none" stroke="#000000" d="M1249.354,-600.6302C1225.0056,-575.2232 1179.5575,-527.7991 1151.7187,-498.75"/>
<polygon fill="#000000" stroke="#000000" points="1154.1511,-496.2296 1144.7051,-491.4314 1149.0972,-501.073 1154.1511,-496.2296"/>
</g>
<!-- app__FinishGenRequest -->
<g id="node9" class="node">
<title>app__FinishGenRequest</title>
<ellipse fill="#fecccc" fill-opacity="0.698039" stroke="#000000" cx="969" cy="-618" rx="77.9862" ry="18"/>
<text text-anchor="middle" x="969" y="-614.3" font-family="Times,serif" font-size="14.00" fill="#000000">FinishGenRequest</text>
</g>
<!-- gameservices__finish_gen_request -->
<g id="node28" class="node">
<title>gameservices__finish_gen_request</title>
<ellipse fill="#ccfee9" fill-opacity="0.698039" stroke="#000000" cx="969" cy="-474" rx="79.0865" ry="18"/>
<text text-anchor="middle" x="969" y="-470.3" font-family="Times,serif" font-size="14.00" fill="#000000">finish_gen_request</text>
</g>
<!-- app__FinishGenRequest&#45;&gt;gameservices__finish_gen_request -->
<g id="edge19" class="edge">
<title>app__FinishGenRequest&#45;&gt;gameservices__finish_gen_request</title>
<path fill="none" stroke="#000000" d="M969,-599.7623C969,-575.201 969,-531.2474 969,-502.3541"/>
<polygon fill="#000000" stroke="#000000" points="972.5001,-502.0896 969,-492.0896 965.5001,-502.0897 972.5001,-502.0896"/>
</g>
<!-- app__IndexRequest -->
<g id="node10" class="node">
<title>app__IndexRequest</title>
<ellipse fill="#fecccc" fill-opacity="0.698039" stroke="#000000" cx="1125" cy="-618" rx="60.3893" ry="18"/>
<text text-anchor="middle" x="1125" y="-614.3" font-family="Times,serif" font-size="14.00" fill="#000000">IndexRequest</text>
</g>
<!-- app__JumpBirdRequest -->
<g id="node11" class="node">
<title>app__JumpBirdRequest</title>
<ellipse fill="#fecccc" fill-opacity="0.698039" stroke="#000000" cx="653" cy="-618" rx="76.0865" ry="18"/>
<text text-anchor="middle" x="653" y="-614.3" font-family="Times,serif" font-size="14.00" fill="#000000">JumpBirdRequest</text>
</g>
<!-- gameservices__jump_bird_request -->
<g id="node29" class="node">
<title>gameservices__jump_bird_request</title>
<ellipse fill="#ccfee9" fill-opacity="0.698039" stroke="#000000" cx="792" cy="-474" rx="79.0865" ry="18"/>
<text text-anchor="middle" x="792" y="-470.3" font-family="Times,serif" font-size="14.00" fill="#000000">jump_bird_request</text>
</g>
<!-- app__JumpBirdRequest&#45;&gt;gameservices__jump_bird_request -->
<g id="edge20" class="edge">
<title>app__JumpBirdRequest&#45;&gt;gameservices__jump_bird_request</title>
<path fill="none" stroke="#000000" d="M670.0441,-600.3428C694.5336,-574.9724 739.7974,-528.0804 767.7614,-499.1105"/>
<polygon fill="#000000" stroke="#000000" points="770.3896,-501.4273 774.8165,-491.8017 765.3532,-496.5658 770.3896,-501.4273"/>
</g>
<!-- app__SingleRequest -->
<g id="node12" class="node">
<title>app__SingleRequest</title>
<ellipse fill="#fecccc" fill-opacity="0.698039" stroke="#000000" cx="810" cy="-618" rx="63.0888" ry="18"/>
<text text-anchor="middle" x="810" y="-614.3" font-family="Times,serif" font-size="14.00" fill="#000000">SingleRequest</text>
</g>
<!-- app__StartGenRequest -->
<g id="node13" class="node">
<title>app__StartGenRequest</title>
<ellipse fill="#fecccc" fill-opacity="0.698039" stroke="#000000" cx="487" cy="-618" rx="72.2875" ry="18"/>
<text text-anchor="middle" x="487" y="-614.3" font-family="Times,serif" font-size="14.00" fill="#000000">StartGenRequest</text>
</g>
<!-- gameservices__start_gen_request -->
<g id="node30" class="node">
<title>gameservices__start_gen_request</title>
<ellipse fill="#ccfee9" fill-opacity="0.698039" stroke="#000000" cx="620" cy="-474" rx="74.9875" ry="18"/>
<text text-anchor="middle" x="620" y="-470.3" font-family="Times,serif" font-size="14.00" fill="#000000">start_gen_request</text>
</g>
<!-- app__StartGenRequest&#45;&gt;gameservices__start_gen_request -->
<g id="edge18" class="edge">
<title>app__StartGenRequest&#45;&gt;gameservices__start_gen_request</title>
<path fill="none" stroke="#000000" d="M503.3084,-600.3428C526.641,-575.0804 569.6825,-528.4791 596.4652,-499.4813"/>
<polygon fill="#000000" stroke="#000000" points="599.3444,-501.5225 603.5582,-491.8017 594.2021,-496.773 599.3444,-501.5225"/>
</g>
<!-- app__StartRequest -->
<g id="node14" class="node">
<title>app__StartRequest</title>
<ellipse fill="#fecccc" fill-opacity="0.698039" stroke="#000000" cx="1404" cy="-618" rx="57.3905" ry="18"/>
<text text-anchor="middle" x="1404" y="-614.3" font-family="Times,serif" font-size="14.00" fill="#000000">StartRequest</text>
</g>
<!-- gameservices__start_request -->
<g id="node31" class="node">
<title>gameservices__start_request</title>
<ellipse fill="#ccfee9" fill-opacity="0.698039" stroke="#000000" cx="1265" cy="-474" rx="57.3905" ry="18"/>
<text text-anchor="middle" x="1265" y="-470.3" font-family="Times,serif" font-size="14.00" fill="#000000">start_request</text>
</g>
<!-- app__StartRequest&#45;&gt;gameservices__start_request -->
<g id="edge17" class="edge">
<title>app__StartRequest&#45;&gt;gameservices__start_request</title>
<path fill="none" stroke="#000000" d="M1387.2334,-600.6302C1362.7085,-575.2232 1316.9311,-527.7991 1288.8906,-498.75"/>
<polygon fill="#000000" stroke="#000000" points="1291.2894,-496.1955 1281.8261,-491.4314 1286.253,-501.057 1291.2894,-496.1955"/>
</g>
<!-- config__config -->
<g id="node15" class="node">
<title>config__config</title>
<ellipse fill="#fef7cc" fill-opacity="0.698039" stroke="#000000" cx="421" cy="-186" rx="33.5952" ry="18"/>
<text text-anchor="middle" x="421" y="-182.3" font-family="Times,serif" font-size="14.00" fill="#000000">config</text>
</g>
<!-- database__Database____del__ -->
<g id="node17" class="node">
<title>database__Database____del__</title>
<ellipse fill="#b6ff99" fill-opacity="0.698039" stroke="#000000" cx="1444" cy="-330" rx="40.0939" ry="18"/>
<text text-anchor="middle" x="1444" y="-326.3" font-family="Times,serif" font-size="14.00" fill="#000000">__del__</text>
</g>
<!-- database__Database____init__&#45;&gt;config__config -->
<g id="edge12" class="edge">
<title>database__Database____init__&#45;&gt;config__config</title>
<path fill="none" stroke="#000000" d="M421,-311.7623C421,-287.201 421,-243.2474 421,-214.3541"/>
<polygon fill="#000000" stroke="#000000" points="424.5001,-214.0896 421,-204.0896 417.5001,-214.0897 424.5001,-214.0896"/>
</g>
<!-- database__Database__create_tables -->
<g id="node19" class="node">
<title>database__Database__create_tables</title>
<ellipse fill="#b6ff99" fill-opacity="0.698039" stroke="#000000" cx="1082" cy="-330" rx="58.4896" ry="18"/>
<text text-anchor="middle" x="1082" y="-326.3" font-family="Times,serif" font-size="14.00" fill="#000000">create_tables</text>
</g>
<!-- database__Database__insert_bird -->
<g id="node20" class="node">
<title>database__Database__insert_bird</title>
<ellipse fill="#b6ff99" fill-opacity="0.698039" stroke="#000000" cx="1336" cy="-330" rx="50.0912" ry="18"/>
<text text-anchor="middle" x="1336" y="-326.3" font-family="Times,serif" font-size="14.00" fill="#000000">insert_bird</text>
</g>
<!-- database__Database__insert_cycle -->
<g id="node21" class="node">
<title>database__Database__insert_cycle</title>
<ellipse fill="#b6ff99" fill-opacity="0.698039" stroke="#000000" cx="1213" cy="-330" rx="54.6905" ry="18"/>
<text text-anchor="middle" x="1213" y="-326.3" font-family="Times,serif" font-size="14.00" fill="#000000">insert_cycle</text>
</g>
<!-- database__Database__insert_fitness -->
<g id="node22" class="node">
<title>database__Database__insert_fitness</title>
<ellipse fill="#b6ff99" fill-opacity="0.698039" stroke="#000000" cx="794" cy="-330" rx="58.4896" ry="18"/>
<text text-anchor="middle" x="794" y="-326.3" font-family="Times,serif" font-size="14.00" fill="#000000">insert_fitness</text>
</g>
<!-- database__Database__select_bird -->
<g id="node23" class="node">
<title>database__Database__select_bird</title>
<ellipse fill="#b6ff99" fill-opacity="0.698039" stroke="#000000" cx="667" cy="-330" rx="50.8918" ry="18"/>
<text text-anchor="middle" x="667" y="-326.3" font-family="Times,serif" font-size="14.00" fill="#000000">select_bird</text>
</g>
<!-- database__Database__select_fitness -->
<g id="node24" class="node">
<title>database__Database__select_fitness</title>
<ellipse fill="#b6ff99" fill-opacity="0.698039" stroke="#000000" cx="539" cy="-330" rx="59.2899" ry="18"/>
<text text-anchor="middle" x="539" y="-326.3" font-family="Times,serif" font-size="14.00" fill="#000000">select_fitness</text>
</g>
<!-- database__Database__select_game_id -->
<g id="node25" class="node">
<title>database__Database__select_game_id</title>
<ellipse fill="#b6ff99" fill-opacity="0.698039" stroke="#000000" cx="938" cy="-330" rx="67.6881" ry="18"/>
<text text-anchor="middle" x="938" y="-326.3" font-family="Times,serif" font-size="14.00" fill="#000000">select_game_id</text>
</g>
<!-- database__Database__update_net -->
<g id="node26" class="node">
<title>database__Database__update_net</title>
<ellipse fill="#b6ff99" fill-opacity="0.698039" stroke="#000000" cx="311" cy="-330" rx="50.8918" ry="18"/>
<text text-anchor="middle" x="311" y="-326.3" font-family="Times,serif" font-size="14.00" fill="#000000">update_net</text>
</g>
<!-- gameservices__apply_request&#45;&gt;database__Database__create_tables -->
<g id="edge28" class="edge">
<title>gameservices__apply_request&#45;&gt;database__Database__create_tables</title>
<path fill="none" stroke="#000000" d="M1122.2671,-456.0535C1114.3819,-431.3696 1100.116,-386.7111 1090.8539,-357.7167"/>
<polygon fill="#000000" stroke="#000000" points="1094.1822,-356.6334 1087.8052,-348.1727 1087.5142,-358.7636 1094.1822,-356.6334"/>
</g>
<!-- gameservices__apply_request&#45;&gt;database__Database__insert_cycle -->
<g id="edge27" class="edge">
<title>gameservices__apply_request&#45;&gt;database__Database__insert_cycle</title>
<path fill="none" stroke="#000000" d="M1138.5934,-456.0535C1153.3714,-431.0179 1180.2782,-385.4347 1197.3652,-356.4872"/>
<polygon fill="#000000" stroke="#000000" points="1200.4708,-358.1112 1202.5401,-347.7204 1194.4427,-354.5529 1200.4708,-358.1112"/>
</g>
<!-- gameservices__apply_request&#45;&gt;database__Database__select_game_id -->
<g id="edge26" class="edge">
<title>gameservices__apply_request&#45;&gt;database__Database__select_game_id</title>
<path fill="none" stroke="#000000" d="M1105.8327,-457.1995C1071.9779,-431.5412 1007.2827,-382.509 968.8578,-353.3869"/>
<polygon fill="#000000" stroke="#000000" points="970.6988,-350.3906 960.615,-347.1398 966.4707,-355.9694 970.6988,-350.3906"/>
</g>
<!-- gameservices__finish_gen_request&#45;&gt;database__Database -->
<g id="edge34" class="edge">
<title>gameservices__finish_gen_request&#45;&gt;database__Database</title>
<path fill="none" stroke="#000000" d="M923.6471,-459.0843C909.7653,-454.9717 894.3666,-450.8597 880,-448 602.8788,-392.8379 506.7113,-492.6111 248,-379 235.1201,-373.3439 223.0654,-363.6341 213.4641,-354.3425"/>
<polygon fill="#000000" stroke="#000000" points="215.8242,-351.7504 206.3213,-347.0658 210.8287,-356.654 215.8242,-351.7504"/>
</g>
<!-- gameservices__finish_gen_request&#45;&gt;database__Database__insert_fitness -->
<g id="edge33" class="edge">
<title>gameservices__finish_gen_request&#45;&gt;database__Database__insert_fitness</title>
<path fill="none" stroke="#000000" d="M947.8909,-456.6302C916.5832,-430.8685 857.7663,-382.4706 822.6126,-353.5441"/>
<polygon fill="#000000" stroke="#000000" points="824.5863,-350.6356 814.6405,-346.9842 820.1385,-356.0409 824.5863,-350.6356"/>
</g>
<!-- genetic__genetic_algorithm -->
<g id="node33" class="node">
<title>genetic__genetic_algorithm</title>
<ellipse fill="#cce9fe" fill-opacity="0.698039" stroke="#000000" cx="1755" cy="-330" rx="76.8869" ry="18"/>
<text text-anchor="middle" x="1755" y="-326.3" font-family="Times,serif" font-size="14.00" fill="#000000">genetic_algorithm</text>
</g>
<!-- gameservices__finish_gen_request&#45;&gt;genetic__genetic_algorithm -->
<g id="edge35" class="edge">
<title>gameservices__finish_gen_request&#45;&gt;genetic__genetic_algorithm</title>
<path fill="none" stroke="#000000" d="M1014.8289,-459.2207C1028.318,-455.2081 1043.1684,-451.1161 1057,-448 1249.6772,-404.5917 1301.389,-412.6948 1496,-379 1560.5732,-367.8198 1633.9483,-353.815 1686.0721,-343.644"/>
<polygon fill="#000000" stroke="#000000" points="1687.062,-347.0168 1696.2046,-341.6629 1685.7188,-340.1469 1687.062,-347.0168"/>
</g>
<!-- gameservices__start_gen_request&#45;&gt;database__Database__select_bird -->
<g id="edge32" class="edge">
<title>gameservices__start_gen_request&#45;&gt;database__Database__select_bird</title>
<path fill="none" stroke="#000000" d="M625.8576,-456.0535C633.9141,-431.3696 648.4901,-386.7111 657.9536,-357.7167"/>
<polygon fill="#000000" stroke="#000000" points="661.293,-358.7652 661.0686,-348.1727 654.6385,-356.5932 661.293,-358.7652"/>
</g>
<!-- gameservices__start_request&#45;&gt;database__Database__insert_bird -->
<g id="edge29" class="edge">
<title>gameservices__start_request&#45;&gt;database__Database__insert_bird</title>
<path fill="none" stroke="#000000" d="M1273.8486,-456.0535C1286.0723,-431.2618 1308.2308,-386.3207 1322.521,-357.3378"/>
<polygon fill="#000000" stroke="#000000" points="1325.7567,-358.6896 1327.0398,-348.1727 1319.4784,-355.594 1325.7567,-358.6896"/>
</g>
<!-- gameservices__start_request&#45;&gt;database__Database__insert_cycle -->
<g id="edge30" class="edge">
<title>gameservices__start_request&#45;&gt;database__Database__insert_cycle</title>
<path fill="none" stroke="#000000" d="M1258.5193,-456.0535C1249.6057,-431.3696 1233.479,-386.7111 1223.0088,-357.7167"/>
<polygon fill="#000000" stroke="#000000" points="1226.2508,-356.3895 1219.5624,-348.1727 1219.6669,-358.767 1226.2508,-356.3895"/>
</g>
<!-- net__generate_net -->
<g id="node40" class="node">
<title>net__generate_net</title>
<ellipse fill="#daccfe" fill-opacity="0.698039" stroke="#000000" cx="2463" cy="-330" rx="57.3905" ry="18"/>
<text text-anchor="middle" x="2463" y="-326.3" font-family="Times,serif" font-size="14.00" fill="#000000">generate_net</text>
</g>
<!-- gameservices__start_request&#45;&gt;net__generate_net -->
<g id="edge31" class="edge">
<title>gameservices__start_request&#45;&gt;net__generate_net</title>
<path fill="none" stroke="#000000" d="M1320.6972,-469.7506C1464.8241,-458.4362 1861.6953,-425.2553 2190,-379 2264.5148,-368.5015 2349.7864,-352.5611 2404.9148,-341.7349"/>
<polygon fill="#000000" stroke="#000000" points="2405.7147,-345.1446 2414.8483,-339.7754 2404.3599,-338.2769 2405.7147,-345.1446"/>
</g>
<!-- genetic__crossover_method -->
<g id="node32" class="node">
<title>genetic__crossover_method</title>
<ellipse fill="#cce9fe" fill-opacity="0.698039" stroke="#000000" cx="1585" cy="-186" rx="77.1866" ry="18"/>
<text text-anchor="middle" x="1585" y="-182.3" font-family="Times,serif" font-size="14.00" fill="#000000">crossover_method</text>
</g>
<!-- genetic__make_matrix -->
<g id="node34" class="node">
<title>genetic__make_matrix</title>
<ellipse fill="#cce9fe" fill-opacity="0.698039" stroke="#000000" cx="1595" cy="-42" rx="58.4896" ry="18"/>
<text text-anchor="middle" x="1595" y="-38.3" font-family="Times,serif" font-size="14.00" fill="#000000">make_matrix</text>
</g>
<!-- genetic__crossover_method&#45;&gt;genetic__make_matrix -->
<g id="edge7" class="edge">
<title>genetic__crossover_method&#45;&gt;genetic__make_matrix</title>
<path fill="none" stroke="#000000" d="M1586.2665,-167.7623C1587.9721,-143.201 1591.0245,-99.2474 1593.031,-70.3541"/>
<polygon fill="#000000" stroke="#000000" points="1596.5425,-70.3081 1593.7438,-60.0896 1589.5593,-69.8231 1596.5425,-70.3081"/>
</g>
<!-- genetic__make_odict -->
<g id="node35" class="node">
<title>genetic__make_odict</title>
<ellipse fill="#cce9fe" fill-opacity="0.698039" stroke="#000000" cx="1745" cy="-42" rx="53.0913" ry="18"/>
<text text-anchor="middle" x="1745" y="-38.3" font-family="Times,serif" font-size="14.00" fill="#000000">make_odict</text>
</g>
<!-- genetic__crossover_method&#45;&gt;genetic__make_odict -->
<g id="edge8" class="edge">
<title>genetic__crossover_method&#45;&gt;genetic__make_odict</title>
<path fill="none" stroke="#000000" d="M1604.6191,-168.3428C1633.2361,-142.5875 1686.4971,-94.6526 1718.5505,-65.8045"/>
<polygon fill="#000000" stroke="#000000" points="1721.1233,-68.1978 1726.2149,-58.9066 1716.4405,-62.9948 1721.1233,-68.1978"/>
</g>
<!-- genetic__genetic_algorithm&#45;&gt;genetic__crossover_method -->
<g id="edge5" class="edge">
<title>genetic__genetic_algorithm&#45;&gt;genetic__crossover_method</title>
<path fill="none" stroke="#000000" d="M1734.494,-312.6302C1704.2443,-287.007 1647.558,-238.9903 1613.3479,-210.0123"/>
<polygon fill="#000000" stroke="#000000" points="1615.4714,-207.2242 1605.5787,-203.4314 1610.947,-212.5655 1615.4714,-207.2242"/>
</g>
<!-- genetic__mutation_method -->
<g id="node36" class="node">
<title>genetic__mutation_method</title>
<ellipse fill="#cce9fe" fill-opacity="0.698039" stroke="#000000" cx="1755" cy="-186" rx="74.9875" ry="18"/>
<text text-anchor="middle" x="1755" y="-182.3" font-family="Times,serif" font-size="14.00" fill="#000000">mutation_method</text>
</g>
<!-- genetic__genetic_algorithm&#45;&gt;genetic__mutation_method -->
<g id="edge6" class="edge">
<title>genetic__genetic_algorithm&#45;&gt;genetic__mutation_method</title>
<path fill="none" stroke="#000000" d="M1755,-311.7623C1755,-287.201 1755,-243.2474 1755,-214.3541"/>
<polygon fill="#000000" stroke="#000000" points="1758.5001,-214.0896 1755,-204.0896 1751.5001,-214.0897 1758.5001,-214.0896"/>
</g>
<!-- genetic__reinsertion_method -->
<g id="node37" class="node">
<title>genetic__reinsertion_method</title>
<ellipse fill="#cce9fe" fill-opacity="0.698039" stroke="#000000" cx="1929" cy="-186" rx="81.4863" ry="18"/>
<text text-anchor="middle" x="1929" y="-182.3" font-family="Times,serif" font-size="14.00" fill="#000000">reinsertion_method</text>
</g>
<!-- genetic__genetic_algorithm&#45;&gt;genetic__reinsertion_method -->
<g id="edge3" class="edge">
<title>genetic__genetic_algorithm&#45;&gt;genetic__reinsertion_method</title>
<path fill="none" stroke="#000000" d="M1775.9885,-312.6302C1806.9499,-287.007 1864.97,-238.9903 1899.9851,-210.0123"/>
<polygon fill="#000000" stroke="#000000" points="1902.4646,-212.5035 1907.9371,-203.4314 1898.0016,-207.1107 1902.4646,-212.5035"/>
</g>
<!-- genetic__selection_method -->
<g id="node38" class="node">
<title>genetic__selection_method</title>
<ellipse fill="#cce9fe" fill-opacity="0.698039" stroke="#000000" cx="2103" cy="-186" rx="74.9875" ry="18"/>
<text text-anchor="middle" x="2103" y="-182.3" font-family="Times,serif" font-size="14.00" fill="#000000">selection_method</text>
</g>
<!-- genetic__genetic_algorithm&#45;&gt;genetic__selection_method -->
<g id="edge4" class="edge">
<title>genetic__genetic_algorithm&#45;&gt;genetic__selection_method</title>
<path fill="none" stroke="#000000" d="M1802.7782,-315.7131C1856.4781,-298.9939 1945.7306,-269.2031 2019,-235 2035.5964,-227.2526 2053.2113,-217.272 2068.0013,-208.3423"/>
<polygon fill="#000000" stroke="#000000" points="2070.1106,-211.1547 2076.8107,-202.9474 2066.4548,-205.1851 2070.1106,-211.1547"/>
</g>
<!-- genetic__mutation_method&#45;&gt;genetic__make_matrix -->
<g id="edge9" class="edge">
<title>genetic__mutation_method&#45;&gt;genetic__make_matrix</title>
<path fill="none" stroke="#000000" d="M1735.3809,-168.3428C1706.9178,-142.726 1654.0749,-95.1674 1621.9683,-66.2715"/>
<polygon fill="#000000" stroke="#000000" points="1624.0542,-63.44 1614.2798,-59.3519 1619.3714,-68.6431 1624.0542,-63.44"/>
</g>
<!-- genetic__mutation_method&#45;&gt;genetic__make_odict -->
<g id="edge10" class="edge">
<title>genetic__mutation_method&#45;&gt;genetic__make_odict</title>
<path fill="none" stroke="#000000" d="M1753.7335,-167.7623C1752.0279,-143.201 1748.9755,-99.2474 1746.969,-70.3541"/>
<polygon fill="#000000" stroke="#000000" points="1750.4407,-69.8231 1746.2562,-60.0896 1743.4575,-70.3081 1750.4407,-69.8231"/>
</g>
<!-- net__Net -->
<g id="node39" class="node">
<title>net__Net</title>
<ellipse fill="#daccfe" fill-opacity="0.698039" stroke="#000000" cx="2463" cy="-186" rx="27" ry="18"/>
<text text-anchor="middle" x="2463" y="-182.3" font-family="Times,serif" font-size="14.00" fill="#000000">Net</text>
</g>
<!-- net__generate_net&#45;&gt;net__Net -->
<g id="edge14" class="edge">
<title>net__generate_net&#45;&gt;net__Net</title>
<path fill="none" stroke="#000000" d="M2463,-311.7623C2463,-287.201 2463,-243.2474 2463,-214.3541"/>
<polygon fill="#000000" stroke="#000000" points="2466.5001,-214.0896 2463,-204.0896 2459.5001,-214.0897 2466.5001,-214.0896"/>
</g>
<!-- net__Net____init__ -->
<g id="node41" class="node">
<title>net__Net____init__</title>
<ellipse fill="#b699ff" fill-opacity="0.698039" stroke="#000000" cx="2341" cy="-186" rx="40.8928" ry="18"/>
<text text-anchor="middle" x="2341" y="-182.3" font-family="Times,serif" font-size="14.00" fill="#000000">__init__</text>
</g>
<!-- net__generate_net&#45;&gt;net__Net____init__ -->
<g id="edge13" class="edge">
<title>net__generate_net&#45;&gt;net__Net____init__</title>
<path fill="none" stroke="#000000" d="M2448.0404,-312.3428C2426.4049,-286.8058 2386.2955,-239.4635 2361.7926,-210.542"/>
<polygon fill="#000000" stroke="#000000" points="2364.4583,-208.274 2355.3237,-202.9066 2359.1174,-212.799 2364.4583,-208.274"/>
</g>
<!-- net__Net__forward -->
<g id="node42" class="node">
<title>net__Net__forward</title>
<ellipse fill="#b699ff" fill-opacity="0.698039" stroke="#000000" cx="2242" cy="-186" rx="39.7935" ry="18"/>
<text text-anchor="middle" x="2242" y="-182.3" font-family="Times,serif" font-size="14.00" fill="#000000">forward</text>
</g>
</g>
</svg>
