<?xml version="1.0" encoding="UTF-8" standalone="no"?>
<!DOCTYPE svg PUBLIC "-//W3C//DTD SVG 1.1//EN"
 "http://www.w3.org/Graphics/SVG/1.1/DTD/svg11.dtd">
<!-- Generated by graphviz version 2.40.1 (20161225.0304)
 -->
<!-- Title: G Pages: 1 -->
<svg width="3416pt" height="780pt"
 viewBox="0.00 0.00 3416.00 779.70" xmlns="http://www.w3.org/2000/svg" xmlns:xlink="http://www.w3.org/1999/xlink">
<g id="graph0" class="graph" transform="scale(1 1) rotate(0) translate(4 775.7006)">
<title>G</title>
<polygon fill="#ffffff" stroke="transparent" points="-4,4 -4,-775.7006 3412,-775.7006 3412,4 -4,4"/>
<g id="clust1" class="cluster">
<title>cluster_G</title>
<path fill="#808080" fill-opacity="0.094118" stroke="#000000" d="M20,-8C20,-8 3388,-8 3388,-8 3394,-8 3400,-14 3400,-20 3400,-20 3400,-751.7006 3400,-751.7006 3400,-757.7006 3394,-763.7006 3388,-763.7006 3388,-763.7006 20,-763.7006 20,-763.7006 14,-763.7006 8,-757.7006 8,-751.7006 8,-751.7006 8,-20 8,-20 8,-14 14,-8 20,-8"/>
</g>
<g id="clust2" class="cluster">
<title>cluster_app</title>
<path fill="#808080" fill-opacity="0.094118" stroke="#000000" d="M807,-662.9605C807,-662.9605 2074,-662.9605 2074,-662.9605 2080,-662.9605 2086,-668.9605 2086,-674.9605 2086,-674.9605 2086,-743.7006 2086,-743.7006 2086,-749.7006 2080,-755.7006 2074,-755.7006 2074,-755.7006 807,-755.7006 807,-755.7006 801,-755.7006 795,-749.7006 795,-743.7006 795,-743.7006 795,-674.9605 795,-674.9605 795,-668.9605 801,-662.9605 807,-662.9605"/>
<text text-anchor="middle" x="1440.5" y="-740.5006" font-family="Times,serif" font-size="14.00" fill="#000000">app</text>
</g>
<g id="clust3" class="cluster">
<title>cluster_config</title>
<path fill="#808080" fill-opacity="0.094118" stroke="#000000" d="M544,-177.7401C544,-177.7401 684,-177.7401 684,-177.7401 690,-177.7401 696,-183.7401 696,-189.7401 696,-189.7401 696,-258.4802 696,-258.4802 696,-264.4802 690,-270.4802 684,-270.4802 684,-270.4802 544,-270.4802 544,-270.4802 538,-270.4802 532,-264.4802 532,-258.4802 532,-258.4802 532,-189.7401 532,-189.7401 532,-183.7401 538,-177.7401 544,-177.7401"/>
<text text-anchor="middle" x="614" y="-255.2802" font-family="Times,serif" font-size="14.00" fill="#000000">config</text>
</g>
<g id="clust4" class="cluster">
<title>cluster_database</title>
<path fill="#808080" fill-opacity="0.094118" stroke="#000000" d="M152,-339.4802C152,-339.4802 310,-339.4802 310,-339.4802 316,-339.4802 322,-345.4802 322,-351.4802 322,-351.4802 322,-420.2203 322,-420.2203 322,-426.2203 316,-432.2203 310,-432.2203 310,-432.2203 152,-432.2203 152,-432.2203 146,-432.2203 140,-426.2203 140,-420.2203 140,-420.2203 140,-351.4802 140,-351.4802 140,-345.4802 146,-339.4802 152,-339.4802"/>
<text text-anchor="middle" x="231" y="-417.0203" font-family="Times,serif" font-size="14.00" fill="#000000">database</text>
</g>
<g id="clust5" class="cluster">
<title>cluster_database__Database</title>
<path fill="#808080" fill-opacity="0.094118" stroke="#000000" d="M342,-339.4802C342,-339.4802 2197,-339.4802 2197,-339.4802 2203,-339.4802 2209,-345.4802 2209,-351.4802 2209,-351.4802 2209,-420.2203 2209,-420.2203 2209,-426.2203 2203,-432.2203 2197,-432.2203 2197,-432.2203 342,-432.2203 342,-432.2203 336,-432.2203 330,-426.2203 330,-420.2203 330,-420.2203 330,-351.4802 330,-351.4802 330,-345.4802 336,-339.4802 342,-339.4802"/>
<text text-anchor="middle" x="1269.5" y="-417.0203" font-family="Times,serif" font-size="14.00" fill="#000000">database.Database</text>
</g>
<g id="clust6" class="cluster">
<title>cluster_gameservices</title>
<path fill="#808080" fill-opacity="0.094118" stroke="#000000" d="M833,-501.2203C833,-501.2203 1947,-501.2203 1947,-501.2203 1953,-501.2203 1959,-507.2203 1959,-513.2203 1959,-513.2203 1959,-581.9605 1959,-581.9605 1959,-587.9605 1953,-593.9605 1947,-593.9605 1947,-593.9605 833,-593.9605 833,-593.9605 827,-593.9605 821,-587.9605 821,-581.9605 821,-581.9605 821,-513.2203 821,-513.2203 821,-507.2203 827,-501.2203 833,-501.2203"/>
<text text-anchor="middle" x="1390" y="-578.7605" font-family="Times,serif" font-size="14.00" fill="#000000">gameservices</text>
</g>
<g id="clust7" class="cluster">
<title>cluster_genetic</title>
<path fill="#808080" fill-opacity="0.094118" stroke="#000000" d="M2229,-16C2229,-16 2946,-16 2946,-16 2952,-16 2958,-22 2958,-28 2958,-28 2958,-420.2203 2958,-420.2203 2958,-426.2203 2952,-432.2203 2946,-432.2203 2946,-432.2203 2229,-432.2203 2229,-432.2203 2223,-432.2203 2217,-426.2203 2217,-420.2203 2217,-420.2203 2217,-28 2217,-28 2217,-22 2223,-16 2229,-16"/>
<text text-anchor="middle" x="2587.5" y="-417.0203" font-family="Times,serif" font-size="14.00" fill="#000000">genetic</text>
</g>
<g id="clust8" class="cluster">
<title>cluster_net</title>
<path fill="#808080" fill-opacity="0.094118" stroke="#000000" d="M3264,-177.7401C3264,-177.7401 3380,-177.7401 3380,-177.7401 3386,-177.7401 3392,-183.7401 3392,-189.7401 3392,-189.7401 3392,-420.2203 3392,-420.2203 3392,-426.2203 3386,-432.2203 3380,-432.2203 3380,-432.2203 3264,-432.2203 3264,-432.2203 3258,-432.2203 3252,-426.2203 3252,-420.2203 3252,-420.2203 3252,-189.7401 3252,-189.7401 3252,-183.7401 3258,-177.7401 3264,-177.7401"/>
<text text-anchor="middle" x="3322" y="-417.0203" font-family="Times,serif" font-size="14.00" fill="#000000">net</text>
</g>
<g id="clust9" class="cluster">
<title>cluster_net__Net</title>
<path fill="#808080" fill-opacity="0.094118" stroke="#000000" d="M2978,-177.7401C2978,-177.7401 3232,-177.7401 3232,-177.7401 3238,-177.7401 3244,-183.7401 3244,-189.7401 3244,-189.7401 3244,-258.4802 3244,-258.4802 3244,-264.4802 3238,-270.4802 3232,-270.4802 3232,-270.4802 2978,-270.4802 2978,-270.4802 2972,-270.4802 2966,-264.4802 2966,-258.4802 2966,-258.4802 2966,-189.7401 2966,-189.7401 2966,-183.7401 2972,-177.7401 2978,-177.7401"/>
<text text-anchor="middle" x="3105" y="-255.2802" font-family="Times,serif" font-size="14.00" fill="#000000">net.Net</text>
</g>
<!-- app -->
<g id="node1" class="node">
<title>app</title>
<ellipse fill="#ffffff" fill-opacity="0.698039" stroke="#000000" cx="129" cy="-697.8305" rx="27" ry="18"/>
<text text-anchor="middle" x="129" y="-694.1305" font-family="Times,serif" font-size="14.00" fill="#000000">app</text>
</g>
<!-- gameservices -->
<g id="node4" class="node">
<title>gameservices</title>
<ellipse fill="#ffffff" fill-opacity="0.698039" stroke="#000000" cx="129" cy="-536.0904" rx="59.5901" ry="18"/>
<text text-anchor="middle" x="129" y="-532.3904" font-family="Times,serif" font-size="14.00" fill="#000000">gameservices</text>
</g>
<!-- app&#45;&gt;gameservices -->
<g id="edge15" class="edge">
<title>app&#45;&gt;gameservices</title>
<path fill="none" stroke="#000000" d="M129,-679.5913C129,-651.6827 129,-598.1325 129,-564.9261"/>
<polygon fill="#000000" stroke="#000000" points="132.5001,-564.5111 129,-554.5112 125.5001,-564.5112 132.5001,-564.5111"/>
</g>
<!-- config -->
<g id="node2" class="node">
<title>config</title>
<ellipse fill="#ffffff" fill-opacity="0.698039" stroke="#000000" cx="58" cy="-50.8701" rx="33.5952" ry="18"/>
<text text-anchor="middle" x="58" y="-47.1701" font-family="Times,serif" font-size="14.00" fill="#000000">config</text>
</g>
<!-- database -->
<g id="node3" class="node">
<title>database</title>
<ellipse fill="#ffffff" fill-opacity="0.698039" stroke="#000000" cx="58" cy="-212.6102" rx="42.4939" ry="18"/>
<text text-anchor="middle" x="58" y="-208.9102" font-family="Times,serif" font-size="14.00" fill="#000000">database</text>
</g>
<!-- database&#45;&gt;config -->
<g id="edge11" class="edge">
<title>database&#45;&gt;config</title>
<path fill="none" stroke="#000000" d="M58,-194.3709C58,-166.4624 58,-112.9122 58,-79.7058"/>
<polygon fill="#000000" stroke="#000000" points="61.5001,-79.2908 58,-69.2908 54.5001,-79.2908 61.5001,-79.2908"/>
</g>
<!-- gameservices&#45;&gt;database -->
<g id="edge25" class="edge">
<title>gameservices&#45;&gt;database</title>
<path fill="none" stroke="#000000" d="M104.1105,-519.6905C79.2264,-501.6466 42.4966,-470.1183 27,-432.2203 .2863,-366.89 27.7222,-282.522 45.4581,-239.8747"/>
<polygon fill="#000000" stroke="#000000" points="48.774,-241.0232 49.5038,-230.4535 42.3419,-238.2611 48.774,-241.0232"/>
</g>
<!-- genetic -->
<g id="node5" class="node">
<title>genetic</title>
<ellipse fill="#ffffff" fill-opacity="0.698039" stroke="#000000" cx="73" cy="-374.3503" rx="37.0935" ry="18"/>
<text text-anchor="middle" x="73" y="-370.6503" font-family="Times,serif" font-size="14.00" fill="#000000">genetic</text>
</g>
<!-- gameservices&#45;&gt;genetic -->
<g id="edge21" class="edge">
<title>gameservices&#45;&gt;genetic</title>
<path fill="none" stroke="#000000" d="M122.7931,-518.1634C113.0379,-489.9883 94.0465,-435.1372 82.5452,-401.9188"/>
<polygon fill="#000000" stroke="#000000" points="85.814,-400.6621 79.2347,-392.3576 79.1992,-402.9524 85.814,-400.6621"/>
</g>
<!-- net -->
<g id="node6" class="node">
<title>net</title>
<ellipse fill="#ffffff" fill-opacity="0.698039" stroke="#000000" cx="145" cy="-212.6102" rx="27" ry="18"/>
<text text-anchor="middle" x="145" y="-208.9102" font-family="Times,serif" font-size="14.00" fill="#000000">net</text>
</g>
<!-- gameservices&#45;&gt;net -->
<g id="edge23" class="edge">
<title>gameservices&#45;&gt;net</title>
<path fill="none" stroke="#000000" d="M129.433,-517.9198C130.3074,-483.2217 132.5035,-405.1362 136,-339.4802 137.8084,-305.523 140.6979,-266.5091 142.7135,-240.8108"/>
<polygon fill="#000000" stroke="#000000" points="146.2164,-240.9114 143.5181,-230.666 139.2383,-240.3579 146.2164,-240.9114"/>
</g>
<!-- database__Database -->
<g id="node16" class="node">
<title>database__Database</title>
<ellipse fill="#dafecc" fill-opacity="0.698039" stroke="#000000" cx="231" cy="-374.3503" rx="82.9636" ry="26.7407"/>
<text text-anchor="middle" x="231" y="-378.1503" font-family="Times,serif" font-size="14.00" fill="#000000">Database</text>
<text text-anchor="middle" x="231" y="-363.1503" font-family="Times,serif" font-size="14.00" fill="#000000">(./database.py:13)</text>
</g>
<!-- gameservices&#45;&gt;database__Database -->
<g id="edge24" class="edge">
<title>gameservices&#45;&gt;database__Database</title>
<path fill="none" stroke="#000000" d="M140.3055,-518.1634C156.78,-492.04 187.7166,-442.9842 208.8324,-409.5011"/>
<polygon fill="#000000" stroke="#000000" points="211.8668,-411.2508 214.2407,-400.9253 205.9459,-407.5168 211.8668,-411.2508"/>
</g>
<!-- database__Database____init__ -->
<g id="node18" class="node">
<title>database__Database____init__</title>
<ellipse fill="#b6ff99" fill-opacity="0.698039" stroke="#000000" cx="614" cy="-374.3503" rx="82.9636" ry="26.7407"/>
<text text-anchor="middle" x="614" y="-378.1503" font-family="Times,serif" font-size="14.00" fill="#000000">__init__</text>
<text text-anchor="middle" x="614" y="-363.1503" font-family="Times,serif" font-size="14.00" fill="#000000">(./database.py:15)</text>
</g>
<!-- gameservices&#45;&gt;database__Database____init__ -->
<g id="edge22" class="edge">
<title>gameservices&#45;&gt;database__Database____init__</title>
<path fill="none" stroke="#000000" d="M181.7087,-527.5469C258.9384,-513.8534 406.3279,-483.2204 523,-432.2203 539.7786,-424.886 557.0192,-414.709 571.9198,-404.932"/>
<polygon fill="#000000" stroke="#000000" points="574.0441,-407.7217 580.4014,-399.2461 570.1462,-401.9073 574.0441,-407.7217"/>
</g>
<!-- genetic&#45;&gt;database -->
<g id="edge2" class="edge">
<title>genetic&#45;&gt;database</title>
<path fill="none" stroke="#000000" d="M71.3085,-356.111C68.7089,-328.0811 63.7106,-274.1861 60.6342,-241.0139"/>
<polygon fill="#000000" stroke="#000000" points="64.117,-240.665 59.7084,-231.0309 57.1469,-241.3114 64.117,-240.665"/>
</g>
<!-- genetic&#45;&gt;net -->
<g id="edge1" class="edge">
<title>genetic&#45;&gt;net</title>
<path fill="none" stroke="#000000" d="M80.8423,-356.7334C93.4478,-328.4165 118.2989,-272.5913 133.0996,-239.3432"/>
<polygon fill="#000000" stroke="#000000" points="136.298,-240.7645 137.1673,-230.2054 129.903,-237.9177 136.298,-240.7645"/>
</g>
<!-- app__AiRequest -->
<g id="node7" class="node">
<title>app__AiRequest</title>
<ellipse fill="#fecccc" fill-opacity="0.698039" stroke="#000000" cx="2015" cy="-697.8305" rx="62.8651" ry="26.7407"/>
<text text-anchor="middle" x="2015" y="-701.6305" font-family="Times,serif" font-size="14.00" fill="#000000">AiRequest</text>
<text text-anchor="middle" x="2015" y="-686.6305" font-family="Times,serif" font-size="14.00" fill="#000000">(./app.py:42)</text>
</g>
<!-- app__ApplyRequest -->
<g id="node8" class="node">
<title>app__ApplyRequest</title>
<ellipse fill="#fecccc" fill-opacity="0.698039" stroke="#000000" cx="1721" cy="-697.8305" rx="68.6788" ry="26.7407"/>
<text text-anchor="middle" x="1721" y="-701.6305" font-family="Times,serif" font-size="14.00" fill="#000000">ApplyRequest</text>
<text text-anchor="middle" x="1721" y="-686.6305" font-family="Times,serif" font-size="14.00" fill="#000000">(./app.py:49)</text>
</g>
<!-- gameservices__apply_request -->
<g id="node27" class="node">
<title>gameservices__apply_request</title>
<ellipse fill="#ccfee9" fill-opacity="0.698039" stroke="#000000" cx="1627" cy="-536.0904" rx="101.6471" ry="26.7407"/>
<text text-anchor="middle" x="1627" y="-539.8904" font-family="Times,serif" font-size="14.00" fill="#000000">apply_request</text>
<text text-anchor="middle" x="1627" y="-524.8904" font-family="Times,serif" font-size="14.00" fill="#000000">(./gameservices.py:41)</text>
</g>
<!-- app__ApplyRequest&#45;&gt;gameservices__apply_request -->
<g id="edge16" class="edge">
<title>app__ApplyRequest&#45;&gt;gameservices__apply_request</title>
<path fill="none" stroke="#000000" d="M1705.6881,-671.4842C1689.8941,-644.3084 1665.1639,-601.7566 1647.6481,-571.6184"/>
<polygon fill="#000000" stroke="#000000" points="1650.5126,-569.5816 1642.4617,-562.6944 1644.4605,-573.099 1650.5126,-569.5816"/>
</g>
<!-- app__FinishGenRequest -->
<g id="node9" class="node">
<title>app__FinishGenRequest</title>
<ellipse fill="#fecccc" fill-opacity="0.698039" stroke="#000000" cx="1400" cy="-697.8305" rx="84.7059" ry="26.7407"/>
<text text-anchor="middle" x="1400" y="-701.6305" font-family="Times,serif" font-size="14.00" fill="#000000">FinishGenRequest</text>
<text text-anchor="middle" x="1400" y="-686.6305" font-family="Times,serif" font-size="14.00" fill="#000000">(./app.py:70)</text>
</g>
<!-- gameservices__finish_gen_request -->
<g id="node28" class="node">
<title>gameservices__finish_gen_request</title>
<ellipse fill="#ccfee9" fill-opacity="0.698039" stroke="#000000" cx="1400" cy="-536.0904" rx="106.5467" ry="26.7407"/>
<text text-anchor="middle" x="1400" y="-539.8904" font-family="Times,serif" font-size="14.00" fill="#000000">finish_gen_request</text>
<text text-anchor="middle" x="1400" y="-524.8904" font-family="Times,serif" font-size="14.00" fill="#000000">(./gameservices.py:123)</text>
</g>
<!-- app__FinishGenRequest&#45;&gt;gameservices__finish_gen_request -->
<g id="edge19" class="edge">
<title>app__FinishGenRequest&#45;&gt;gameservices__finish_gen_request</title>
<path fill="none" stroke="#000000" d="M1400,-670.7589C1400,-643.971 1400,-602.77 1400,-572.994"/>
<polygon fill="#000000" stroke="#000000" points="1403.5001,-572.9807 1400,-562.9808 1396.5001,-572.9808 1403.5001,-572.9807"/>
</g>
<!-- app__IndexRequest -->
<g id="node10" class="node">
<title>app__IndexRequest</title>
<ellipse fill="#fecccc" fill-opacity="0.698039" stroke="#000000" cx="1569" cy="-697.8305" rx="65.5227" ry="26.7407"/>
<text text-anchor="middle" x="1569" y="-701.6305" font-family="Times,serif" font-size="14.00" fill="#000000">IndexRequest</text>
<text text-anchor="middle" x="1569" y="-686.6305" font-family="Times,serif" font-size="14.00" fill="#000000">(./app.py:26)</text>
</g>
<!-- app__JumpBirdRequest -->
<g id="node11" class="node">
<title>app__JumpBirdRequest</title>
<ellipse fill="#fecccc" fill-opacity="0.698039" stroke="#000000" cx="1060" cy="-697.8305" rx="82.9636" ry="26.7407"/>
<text text-anchor="middle" x="1060" y="-701.6305" font-family="Times,serif" font-size="14.00" fill="#000000">JumpBirdRequest</text>
<text text-anchor="middle" x="1060" y="-686.6305" font-family="Times,serif" font-size="14.00" fill="#000000">(./app.py:77)</text>
</g>
<!-- gameservices__jump_bird_request -->
<g id="node29" class="node">
<title>gameservices__jump_bird_request</title>
<ellipse fill="#ccfee9" fill-opacity="0.698039" stroke="#000000" cx="1168" cy="-536.0904" rx="106.5467" ry="26.7407"/>
<text text-anchor="middle" x="1168" y="-539.8904" font-family="Times,serif" font-size="14.00" fill="#000000">jump_bird_request</text>
<text text-anchor="middle" x="1168" y="-524.8904" font-family="Times,serif" font-size="14.00" fill="#000000">(./gameservices.py:144)</text>
</g>
<!-- app__JumpBirdRequest&#45;&gt;gameservices__jump_bird_request -->
<g id="edge20" class="edge">
<title>app__JumpBirdRequest&#45;&gt;gameservices__jump_bird_request</title>
<path fill="none" stroke="#000000" d="M1077.5924,-671.4842C1095.8169,-644.1913 1124.3973,-601.3895 1144.5364,-571.2294"/>
<polygon fill="#000000" stroke="#000000" points="1147.593,-572.9545 1150.2355,-562.6944 1141.7715,-569.0672 1147.593,-572.9545"/>
</g>
<!-- app__SingleRequest -->
<g id="node12" class="node">
<title>app__SingleRequest</title>
<ellipse fill="#fecccc" fill-opacity="0.698039" stroke="#000000" cx="1229" cy="-697.8305" rx="68.6788" ry="26.7407"/>
<text text-anchor="middle" x="1229" y="-701.6305" font-family="Times,serif" font-size="14.00" fill="#000000">SingleRequest</text>
<text text-anchor="middle" x="1229" y="-686.6305" font-family="Times,serif" font-size="14.00" fill="#000000">(./app.py:34)</text>
</g>
<!-- app__StartGenRequest -->
<g id="node13" class="node">
<title>app__StartGenRequest</title>
<ellipse fill="#fecccc" fill-opacity="0.698039" stroke="#000000" cx="881" cy="-697.8305" rx="78.4777" ry="26.7407"/>
<text text-anchor="middle" x="881" y="-701.6305" font-family="Times,serif" font-size="14.00" fill="#000000">StartGenRequest</text>
<text text-anchor="middle" x="881" y="-686.6305" font-family="Times,serif" font-size="14.00" fill="#000000">(./app.py:63)</text>
</g>
<!-- gameservices__start_gen_request -->
<g id="node30" class="node">
<title>gameservices__start_gen_request</title>
<ellipse fill="#ccfee9" fill-opacity="0.698039" stroke="#000000" cx="936" cy="-536.0904" rx="106.5467" ry="26.7407"/>
<text text-anchor="middle" x="936" y="-539.8904" font-family="Times,serif" font-size="14.00" fill="#000000">start_gen_request</text>
<text text-anchor="middle" x="936" y="-524.8904" font-family="Times,serif" font-size="14.00" fill="#000000">(./gameservices.py:104)</text>
</g>
<!-- app__StartGenRequest&#45;&gt;gameservices__start_gen_request -->
<g id="edge18" class="edge">
<title>app__StartGenRequest&#45;&gt;gameservices__start_gen_request</title>
<path fill="none" stroke="#000000" d="M890.0821,-671.1224C899.2104,-644.2788 913.3492,-602.7002 923.5262,-572.7726"/>
<polygon fill="#000000" stroke="#000000" points="926.9067,-573.7024 926.8126,-563.108 920.2794,-571.4487 926.9067,-573.7024"/>
</g>
<!-- app__StartRequest -->
<g id="node14" class="node">
<title>app__StartRequest</title>
<ellipse fill="#fecccc" fill-opacity="0.698039" stroke="#000000" cx="1871" cy="-697.8305" rx="62.8651" ry="26.7407"/>
<text text-anchor="middle" x="1871" y="-701.6305" font-family="Times,serif" font-size="14.00" fill="#000000">StartRequest</text>
<text text-anchor="middle" x="1871" y="-686.6305" font-family="Times,serif" font-size="14.00" fill="#000000">(./app.py:56)</text>
</g>
<!-- gameservices__start_request -->
<g id="node31" class="node">
<title>gameservices__start_request</title>
<ellipse fill="#ccfee9" fill-opacity="0.698039" stroke="#000000" cx="1849" cy="-536.0904" rx="101.6471" ry="26.7407"/>
<text text-anchor="middle" x="1849" y="-539.8904" font-family="Times,serif" font-size="14.00" fill="#000000">start_request</text>
<text text-anchor="middle" x="1849" y="-524.8904" font-family="Times,serif" font-size="14.00" fill="#000000">(./gameservices.py:85)</text>
</g>
<!-- app__StartRequest&#45;&gt;gameservices__start_request -->
<g id="edge17" class="edge">
<title>app__StartRequest&#45;&gt;gameservices__start_request</title>
<path fill="none" stroke="#000000" d="M1867.3177,-670.7589C1863.674,-643.971 1858.0698,-602.77 1854.0197,-572.994"/>
<polygon fill="#000000" stroke="#000000" points="1857.4736,-572.4178 1852.6576,-562.9808 1850.5375,-573.3613 1857.4736,-572.4178"/>
</g>
<!-- config__config -->
<g id="node15" class="node">
<title>config__config</title>
<ellipse fill="#fef7cc" fill-opacity="0.698039" stroke="#000000" cx="614" cy="-212.6102" rx="73.5782" ry="26.7407"/>
<text text-anchor="middle" x="614" y="-216.4102" font-family="Times,serif" font-size="14.00" fill="#000000">config</text>
<text text-anchor="middle" x="614" y="-201.4102" font-family="Times,serif" font-size="14.00" fill="#000000">(./config.py:14)</text>
</g>
<!-- database__Database____del__ -->
<g id="node17" class="node">
<title>database__Database____del__</title>
<ellipse fill="#b6ff99" fill-opacity="0.698039" stroke="#000000" cx="2118" cy="-374.3503" rx="82.9636" ry="26.7407"/>
<text text-anchor="middle" x="2118" y="-378.1503" font-family="Times,serif" font-size="14.00" fill="#000000">__del__</text>
<text text-anchor="middle" x="2118" y="-363.1503" font-family="Times,serif" font-size="14.00" fill="#000000">(./database.py:27)</text>
</g>
<!-- database__Database____init__&#45;&gt;config__config -->
<g id="edge12" class="edge">
<title>database__Database____init__&#45;&gt;config__config</title>
<path fill="none" stroke="#000000" d="M614,-347.2786C614,-320.4908 614,-279.2897 614,-249.5138"/>
<polygon fill="#000000" stroke="#000000" points="617.5001,-249.5005 614,-239.5005 610.5001,-249.5006 617.5001,-249.5005"/>
</g>
<!-- database__Database__create_tables -->
<g id="node19" class="node">
<title>database__Database__create_tables</title>
<ellipse fill="#b6ff99" fill-opacity="0.698039" stroke="#000000" cx="1569" cy="-374.3503" rx="82.9636" ry="26.7407"/>
<text text-anchor="middle" x="1569" y="-378.1503" font-family="Times,serif" font-size="14.00" fill="#000000">create_tables</text>
<text text-anchor="middle" x="1569" y="-363.1503" font-family="Times,serif" font-size="14.00" fill="#000000">(./database.py:35)</text>
</g>
<!-- database__Database__insert_bird -->
<g id="node20" class="node">
<title>database__Database__insert_bird</title>
<ellipse fill="#b6ff99" fill-opacity="0.698039" stroke="#000000" cx="1935" cy="-374.3503" rx="82.9636" ry="26.7407"/>
<text text-anchor="middle" x="1935" y="-378.1503" font-family="Times,serif" font-size="14.00" fill="#000000">insert_bird</text>
<text text-anchor="middle" x="1935" y="-363.1503" font-family="Times,serif" font-size="14.00" fill="#000000">(./database.py:93)</text>
</g>
<!-- database__Database__insert_cycle -->
<g id="node21" class="node">
<title>database__Database__insert_cycle</title>
<ellipse fill="#b6ff99" fill-opacity="0.698039" stroke="#000000" cx="1752" cy="-374.3503" rx="82.9636" ry="26.7407"/>
<text text-anchor="middle" x="1752" y="-378.1503" font-family="Times,serif" font-size="14.00" fill="#000000">insert_cycle</text>
<text text-anchor="middle" x="1752" y="-363.1503" font-family="Times,serif" font-size="14.00" fill="#000000">(./database.py:58)</text>
</g>
<!-- database__Database__insert_fitness -->
<g id="node22" class="node">
<title>database__Database__insert_fitness</title>
<ellipse fill="#b6ff99" fill-opacity="0.698039" stroke="#000000" cx="1188" cy="-374.3503" rx="87.8629" ry="26.7407"/>
<text text-anchor="middle" x="1188" y="-378.1503" font-family="Times,serif" font-size="14.00" fill="#000000">insert_fitness</text>
<text text-anchor="middle" x="1188" y="-363.1503" font-family="Times,serif" font-size="14.00" fill="#000000">(./database.py:128)</text>
</g>
<!-- database__Database__select_bird -->
<g id="node23" class="node">
<title>database__Database__select_bird</title>
<ellipse fill="#b6ff99" fill-opacity="0.698039" stroke="#000000" cx="995" cy="-374.3503" rx="87.8629" ry="26.7407"/>
<text text-anchor="middle" x="995" y="-378.1503" font-family="Times,serif" font-size="14.00" fill="#000000">select_bird</text>
<text text-anchor="middle" x="995" y="-363.1503" font-family="Times,serif" font-size="14.00" fill="#000000">(./database.py:161)</text>
</g>
<!-- database__Database__select_fitness -->
<g id="node24" class="node">
<title>database__Database__select_fitness</title>
<ellipse fill="#b6ff99" fill-opacity="0.698039" stroke="#000000" cx="802" cy="-374.3503" rx="87.8629" ry="26.7407"/>
<text text-anchor="middle" x="802" y="-378.1503" font-family="Times,serif" font-size="14.00" fill="#000000">select_fitness</text>
<text text-anchor="middle" x="802" y="-363.1503" font-family="Times,serif" font-size="14.00" fill="#000000">(./database.py:184)</text>
</g>
<!-- database__Database__select_game_id -->
<g id="node25" class="node">
<title>database__Database__select_game_id</title>
<ellipse fill="#b6ff99" fill-opacity="0.698039" stroke="#000000" cx="1381" cy="-374.3503" rx="87.8629" ry="26.7407"/>
<text text-anchor="middle" x="1381" y="-378.1503" font-family="Times,serif" font-size="14.00" fill="#000000">select_game_id</text>
<text text-anchor="middle" x="1381" y="-363.1503" font-family="Times,serif" font-size="14.00" fill="#000000">(./database.py:227)</text>
</g>
<!-- database__Database__update_net -->
<g id="node26" class="node">
<title>database__Database__update_net</title>
<ellipse fill="#b6ff99" fill-opacity="0.698039" stroke="#000000" cx="426" cy="-374.3503" rx="87.8629" ry="26.7407"/>
<text text-anchor="middle" x="426" y="-378.1503" font-family="Times,serif" font-size="14.00" fill="#000000">update_net</text>
<text text-anchor="middle" x="426" y="-363.1503" font-family="Times,serif" font-size="14.00" fill="#000000">(./database.py:207)</text>
</g>
<!-- gameservices__apply_request&#45;&gt;database__Database__create_tables -->
<g id="edge28" class="edge">
<title>gameservices__apply_request&#45;&gt;database__Database__create_tables</title>
<path fill="none" stroke="#000000" d="M1617.2921,-509.0187C1607.644,-482.1139 1592.7822,-440.6697 1582.094,-410.8645"/>
<polygon fill="#000000" stroke="#000000" points="1585.313,-409.4723 1578.6429,-401.2406 1578.7239,-411.8352 1585.313,-409.4723"/>
</g>
<!-- gameservices__apply_request&#45;&gt;database__Database__insert_cycle -->
<g id="edge27" class="edge">
<title>gameservices__apply_request&#45;&gt;database__Database__insert_cycle</title>
<path fill="none" stroke="#000000" d="M1647.3616,-509.7441C1668.6718,-482.1704 1702.2158,-438.7671 1725.5593,-408.5625"/>
<polygon fill="#000000" stroke="#000000" points="1728.5085,-410.47 1731.8542,-400.4173 1722.9698,-406.1895 1728.5085,-410.47"/>
</g>
<!-- gameservices__apply_request&#45;&gt;database__Database__select_game_id -->
<g id="edge26" class="edge">
<title>gameservices__apply_request&#45;&gt;database__Database__select_game_id</title>
<path fill="none" stroke="#000000" d="M1588.8324,-510.996C1545.0011,-482.1778 1473.1475,-434.9355 1426.4608,-404.2399"/>
<polygon fill="#000000" stroke="#000000" points="1428.3273,-401.2783 1418.0487,-398.7091 1424.4816,-407.1274 1428.3273,-401.2783"/>
</g>
<!-- gameservices__finish_gen_request&#45;&gt;database__Database -->
<g id="edge34" class="edge">
<title>gameservices__finish_gen_request&#45;&gt;database__Database</title>
<path fill="none" stroke="#000000" d="M1336.7988,-514.3483C1319.834,-509.2699 1301.3728,-504.4168 1284,-501.2203 864.1664,-423.9748 732.5961,-562.2463 326,-432.2203 307.0651,-426.1651 287.9977,-415.6229 271.9658,-405.181"/>
<polygon fill="#000000" stroke="#000000" points="273.6438,-402.0919 263.3915,-399.4195 269.7396,-407.902 273.6438,-402.0919"/>
</g>
<!-- gameservices__finish_gen_request&#45;&gt;database__Database__insert_fitness -->
<g id="edge33" class="edge">
<title>gameservices__finish_gen_request&#45;&gt;database__Database__insert_fitness</title>
<path fill="none" stroke="#000000" d="M1366.408,-510.4622C1329.0516,-481.9621 1268.7125,-435.9279 1228.7037,-405.4041"/>
<polygon fill="#000000" stroke="#000000" points="1230.8117,-402.6101 1220.7383,-399.3271 1226.5657,-408.1754 1230.8117,-402.6101"/>
</g>
<!-- genetic__genetic_algorithm -->
<g id="node33" class="node">
<title>genetic__genetic_algorithm</title>
<ellipse fill="#cce9fe" fill-opacity="0.698039" stroke="#000000" cx="2493" cy="-374.3503" rx="83.3772" ry="26.7407"/>
<text text-anchor="middle" x="2493" y="-378.1503" font-family="Times,serif" font-size="14.00" fill="#000000">genetic_algorithm</text>
<text text-anchor="middle" x="2493" y="-363.1503" font-family="Times,serif" font-size="14.00" fill="#000000">(./genetic.py:26)</text>
</g>
<!-- gameservices__finish_gen_request&#45;&gt;genetic__genetic_algorithm -->
<g id="edge35" class="edge">
<title>gameservices__finish_gen_request&#45;&gt;genetic__genetic_algorithm</title>
<path fill="none" stroke="#000000" d="M1463.8677,-514.4815C1480.6646,-509.4648 1498.8778,-504.6082 1516,-501.2203 1821.3716,-440.7978 1905.2615,-479.1214 2213,-432.2203 2282.0914,-421.6904 2359.8799,-405.2383 2415.8998,-392.5634"/>
<polygon fill="#000000" stroke="#000000" points="2416.7737,-395.9541 2425.7483,-390.3233 2415.2211,-389.1285 2416.7737,-395.9541"/>
</g>
<!-- gameservices__start_gen_request&#45;&gt;database__Database__select_bird -->
<g id="edge32" class="edge">
<title>gameservices__start_gen_request&#45;&gt;database__Database__select_bird</title>
<path fill="none" stroke="#000000" d="M945.8753,-509.0187C955.6897,-482.1139 970.8078,-440.6697 981.6802,-410.8645"/>
<polygon fill="#000000" stroke="#000000" points="985.0519,-411.8346 985.1909,-401.2406 978.4758,-409.4357 985.0519,-411.8346"/>
</g>
<!-- gameservices__start_request&#45;&gt;database__Database__insert_bird -->
<g id="edge29" class="edge">
<title>gameservices__start_request&#45;&gt;database__Database__insert_bird</title>
<path fill="none" stroke="#000000" d="M1863.2012,-509.3823C1877.685,-482.1426 1900.2365,-439.7299 1916.1957,-409.7155"/>
<polygon fill="#000000" stroke="#000000" points="1919.3162,-411.3019 1920.9207,-400.8292 1913.1356,-408.0155 1919.3162,-411.3019"/>
</g>
<!-- gameservices__start_request&#45;&gt;database__Database__insert_cycle -->
<g id="edge30" class="edge">
<title>gameservices__start_request&#45;&gt;database__Database__insert_cycle</title>
<path fill="none" stroke="#000000" d="M1832.9824,-509.3823C1816.646,-482.1426 1791.21,-439.7299 1773.2095,-409.7155"/>
<polygon fill="#000000" stroke="#000000" points="1776.025,-407.6051 1767.8802,-400.8292 1770.0218,-411.2054 1776.025,-407.6051"/>
</g>
<!-- net__generate_net -->
<g id="node40" class="node">
<title>net__generate_net</title>
<ellipse fill="#daccfe" fill-opacity="0.698039" stroke="#000000" cx="3322" cy="-374.3503" rx="62.4516" ry="26.7407"/>
<text text-anchor="middle" x="3322" y="-378.1503" font-family="Times,serif" font-size="14.00" fill="#000000">generate_net</text>
<text text-anchor="middle" x="3322" y="-363.1503" font-family="Times,serif" font-size="14.00" fill="#000000">(./net.py:14)</text>
</g>
<!-- gameservices__start_request&#45;&gt;net__generate_net -->
<g id="edge31" class="edge">
<title>gameservices__start_request&#45;&gt;net__generate_net</title>
<path fill="none" stroke="#000000" d="M1947.5046,-529.1039C2141.9133,-514.8279 2588.5016,-479.6156 2962,-432.2203 3064.412,-419.2247 3182.4355,-399.3022 3254.621,-386.5518"/>
<polygon fill="#000000" stroke="#000000" points="3255.2603,-389.9932 3264.4961,-384.8018 3254.0387,-383.1006 3255.2603,-389.9932"/>
</g>
<!-- genetic__crossover_method -->
<g id="node32" class="node">
<title>genetic__crossover_method</title>
<ellipse fill="#cce9fe" fill-opacity="0.698039" stroke="#000000" cx="2309" cy="-212.6102" rx="84.2917" ry="26.7407"/>
<text text-anchor="middle" x="2309" y="-216.4102" font-family="Times,serif" font-size="14.00" fill="#000000">crossover_method</text>
<text text-anchor="middle" x="2309" y="-201.4102" font-family="Times,serif" font-size="14.00" fill="#000000">(./genetic.py:87)</text>
</g>
<!-- genetic__make_matrix -->
<g id="node34" class="node">
<title>genetic__make_matrix</title>
<ellipse fill="#cce9fe" fill-opacity="0.698039" stroke="#000000" cx="2309" cy="-50.8701" rx="82.0488" ry="26.7407"/>
<text text-anchor="middle" x="2309" y="-54.6701" font-family="Times,serif" font-size="14.00" fill="#000000">make_matrix</text>
<text text-anchor="middle" x="2309" y="-39.6701" font-family="Times,serif" font-size="14.00" fill="#000000">(./genetic.py:180)</text>
</g>
<!-- genetic__crossover_method&#45;&gt;genetic__make_matrix -->
<g id="edge7" class="edge">
<title>genetic__crossover_method&#45;&gt;genetic__make_matrix</title>
<path fill="none" stroke="#000000" d="M2309,-185.5385C2309,-158.7507 2309,-117.5496 2309,-87.7737"/>
<polygon fill="#000000" stroke="#000000" points="2312.5001,-87.7604 2309,-77.7604 2305.5001,-87.7605 2312.5001,-87.7604"/>
</g>
<!-- genetic__make_odict -->
<g id="node35" class="node">
<title>genetic__make_odict</title>
<ellipse fill="#cce9fe" fill-opacity="0.698039" stroke="#000000" cx="2492" cy="-50.8701" rx="82.0488" ry="26.7407"/>
<text text-anchor="middle" x="2492" y="-54.6701" font-family="Times,serif" font-size="14.00" fill="#000000">make_odict</text>
<text text-anchor="middle" x="2492" y="-39.6701" font-family="Times,serif" font-size="14.00" fill="#000000">(./genetic.py:197)</text>
</g>
<!-- genetic__crossover_method&#45;&gt;genetic__make_odict -->
<g id="edge8" class="edge">
<title>genetic__crossover_method&#45;&gt;genetic__make_odict</title>
<path fill="none" stroke="#000000" d="M2337.5938,-187.3383C2369.4625,-159.1719 2421.0639,-113.5652 2455.7434,-82.9145"/>
<polygon fill="#000000" stroke="#000000" points="2458.1306,-85.4758 2463.3057,-76.2309 2453.4949,-80.2308 2458.1306,-85.4758"/>
</g>
<!-- genetic__genetic_algorithm&#45;&gt;genetic__crossover_method -->
<g id="edge5" class="edge">
<title>genetic__genetic_algorithm&#45;&gt;genetic__crossover_method</title>
<path fill="none" stroke="#000000" d="M2464.25,-349.0784C2432.2071,-320.912 2380.3237,-275.3053 2345.4547,-244.6547"/>
<polygon fill="#000000" stroke="#000000" points="2347.6727,-241.9444 2337.8511,-237.971 2343.0512,-247.2019 2347.6727,-241.9444"/>
</g>
<!-- genetic__mutation_method -->
<g id="node36" class="node">
<title>genetic__mutation_method</title>
<ellipse fill="#cce9fe" fill-opacity="0.698039" stroke="#000000" cx="2493" cy="-212.6102" rx="82.0488" ry="26.7407"/>
<text text-anchor="middle" x="2493" y="-216.4102" font-family="Times,serif" font-size="14.00" fill="#000000">mutation_method</text>
<text text-anchor="middle" x="2493" y="-201.4102" font-family="Times,serif" font-size="14.00" fill="#000000">(./genetic.py:120)</text>
</g>
<!-- genetic__genetic_algorithm&#45;&gt;genetic__mutation_method -->
<g id="edge6" class="edge">
<title>genetic__genetic_algorithm&#45;&gt;genetic__mutation_method</title>
<path fill="none" stroke="#000000" d="M2493,-347.2786C2493,-320.4908 2493,-279.2897 2493,-249.5138"/>
<polygon fill="#000000" stroke="#000000" points="2496.5001,-249.5005 2493,-239.5005 2489.5001,-249.5006 2496.5001,-249.5005"/>
</g>
<!-- genetic__reinsertion_method -->
<g id="node37" class="node">
<title>genetic__reinsertion_method</title>
<ellipse fill="#cce9fe" fill-opacity="0.698039" stroke="#000000" cx="2681" cy="-212.6102" rx="88.2768" ry="26.7407"/>
<text text-anchor="middle" x="2681" y="-216.4102" font-family="Times,serif" font-size="14.00" fill="#000000">reinsertion_method</text>
<text text-anchor="middle" x="2681" y="-201.4102" font-family="Times,serif" font-size="14.00" fill="#000000">(./genetic.py:162)</text>
</g>
<!-- genetic__genetic_algorithm&#45;&gt;genetic__reinsertion_method -->
<g id="edge3" class="edge">
<title>genetic__genetic_algorithm&#45;&gt;genetic__reinsertion_method</title>
<path fill="none" stroke="#000000" d="M2522.375,-349.0784C2555.1145,-320.912 2608.1258,-275.3053 2643.7528,-244.6547"/>
<polygon fill="#000000" stroke="#000000" points="2646.2236,-247.146 2651.5217,-237.971 2641.6583,-241.8396 2646.2236,-247.146"/>
</g>
<!-- genetic__selection_method -->
<g id="node38" class="node">
<title>genetic__selection_method</title>
<ellipse fill="#cce9fe" fill-opacity="0.698039" stroke="#000000" cx="2869" cy="-212.6102" rx="81.135" ry="26.7407"/>
<text text-anchor="middle" x="2869" y="-216.4102" font-family="Times,serif" font-size="14.00" fill="#000000">selection_method</text>
<text text-anchor="middle" x="2869" y="-201.4102" font-family="Times,serif" font-size="14.00" fill="#000000">(./genetic.py:63)</text>
</g>
<!-- genetic__genetic_algorithm&#45;&gt;genetic__selection_method -->
<g id="edge4" class="edge">
<title>genetic__genetic_algorithm&#45;&gt;genetic__selection_method</title>
<path fill="none" stroke="#000000" d="M2554.6282,-356.1635C2613.4487,-337.82 2703.839,-307.0349 2778,-270.4802 2794.2843,-262.4535 2811.2886,-252.2046 2826.131,-242.5685"/>
<polygon fill="#000000" stroke="#000000" points="2828.1753,-245.413 2834.5984,-236.9872 2824.3228,-239.5684 2828.1753,-245.413"/>
</g>
<!-- genetic__mutation_method&#45;&gt;genetic__make_matrix -->
<g id="edge9" class="edge">
<title>genetic__mutation_method&#45;&gt;genetic__make_matrix</title>
<path fill="none" stroke="#000000" d="M2464.25,-187.3383C2432.2071,-159.1719 2380.3237,-113.5652 2345.4547,-82.9145"/>
<polygon fill="#000000" stroke="#000000" points="2347.6727,-80.2042 2337.8511,-76.2309 2343.0512,-85.4618 2347.6727,-80.2042"/>
</g>
<!-- genetic__mutation_method&#45;&gt;genetic__make_odict -->
<g id="edge10" class="edge">
<title>genetic__mutation_method&#45;&gt;genetic__make_odict</title>
<path fill="none" stroke="#000000" d="M2492.8326,-185.5385C2492.667,-158.7507 2492.4123,-117.5496 2492.2282,-87.7737"/>
<polygon fill="#000000" stroke="#000000" points="2495.7281,-87.7386 2492.1663,-77.7604 2488.7282,-87.7819 2495.7281,-87.7386"/>
</g>
<!-- net__Net -->
<g id="node39" class="node">
<title>net__Net</title>
<ellipse fill="#daccfe" fill-opacity="0.698039" stroke="#000000" cx="3322" cy="-212.6102" rx="60.623" ry="26.7407"/>
<text text-anchor="middle" x="3322" y="-216.4102" font-family="Times,serif" font-size="14.00" fill="#000000">Net</text>
<text text-anchor="middle" x="3322" y="-201.4102" font-family="Times,serif" font-size="14.00" fill="#000000">(./net.py:20)</text>
</g>
<!-- net__generate_net&#45;&gt;net__Net -->
<g id="edge14" class="edge">
<title>net__generate_net&#45;&gt;net__Net</title>
<path fill="none" stroke="#000000" d="M3322,-347.2786C3322,-320.4908 3322,-279.2897 3322,-249.5138"/>
<polygon fill="#000000" stroke="#000000" points="3325.5001,-249.5005 3322,-239.5005 3318.5001,-249.5006 3325.5001,-249.5005"/>
</g>
<!-- net__Net____init__ -->
<g id="node41" class="node">
<title>net__Net____init__</title>
<ellipse fill="#b699ff" fill-opacity="0.698039" stroke="#000000" cx="3175" cy="-212.6102" rx="60.623" ry="26.7407"/>
<text text-anchor="middle" x="3175" y="-216.4102" font-family="Times,serif" font-size="14.00" fill="#000000">__init__</text>
<text text-anchor="middle" x="3175" y="-201.4102" font-family="Times,serif" font-size="14.00" fill="#000000">(./net.py:25)</text>
</g>
<!-- net__generate_net&#45;&gt;net__Net____init__ -->
<g id="edge13" class="edge">
<title>net__generate_net&#45;&gt;net__Net____init__</title>
<path fill="none" stroke="#000000" d="M3299.0313,-349.0784C3273.5724,-321.0668 3232.4365,-275.806 3204.5846,-245.1613"/>
<polygon fill="#000000" stroke="#000000" points="3207.1234,-242.7508 3197.8075,-237.7046 3201.9432,-247.4589 3207.1234,-242.7508"/>
</g>
<!-- net__Net__forward -->
<g id="node42" class="node">
<title>net__Net__forward</title>
<ellipse fill="#b699ff" fill-opacity="0.698039" stroke="#000000" cx="3035" cy="-212.6102" rx="60.623" ry="26.7407"/>
<text text-anchor="middle" x="3035" y="-216.4102" font-family="Times,serif" font-size="14.00" fill="#000000">forward</text>
<text text-anchor="middle" x="3035" y="-201.4102" font-family="Times,serif" font-size="14.00" fill="#000000">(./net.py:36)</text>
</g>
</g>
</svg>
